<?xml version="1.0" encoding="UTF-8" standalone="no"?>
<svg width="41px" height="41px" viewBox="0 0 41 41" version="1.1" xmlns="http://www.w3.org/2000/svg" xmlns:xlink="http://www.w3.org/1999/xlink">
    <!-- Generator: Sketch 40.3 (33839) - http://www.bohemiancoding.com/sketch -->
    <title>face_icon</title>
    <desc>Created with Sketch.</desc>
    <defs></defs>
    <g id="Welcome" stroke="none" stroke-width="1" fill="none" fill-rule="evenodd">
        <g id="Lojas-pormenor" transform="translate(-607.000000, -2262.000000)" fill="#212121">
            <g id="Group-6-Copy" transform="translate(195.000000, 1832.000000)">
                <g id="Group-4">
                    <path d="M432.35732,430 C421.13234,430 412,439.13234 412,450.35732 C412,461.58148 421.13234,470.71464 432.35732,470.71464 C443.58148,470.71464 452.71464,461.58148 452.71464,450.35732 C452.71464,439.13234 443.58312,430 432.35732,430 L432.35732,430 Z M437.42,451.074 L434.10802,451.074 L434.10802,462.87872 L429.20032,462.87872 L429.20032,451.074 L426.86742,451.074 L426.86742,446.90184 L429.20032,446.90184 L429.20032,444.20322 C429.20032,442.27048 430.11872,439.25042 434.15312,439.25042 L437.78982,439.26436 L437.78982,443.31434 L435.15024,443.31434 C434.72056,443.31434 434.10966,443.52918 434.10966,444.45086 L434.10966,446.90266 L437.84886,446.90266 L437.42,451.074 L437.42,451.074 Z" id="face_icon"></path>
                </g>
            </g>
        </g>
    </g>
</svg>