<?xml version="1.0" encoding="UTF-8" standalone="no"?>
<svg width="41px" height="41px" viewBox="0 0 41 41" version="1.1" xmlns="http://www.w3.org/2000/svg" xmlns:xlink="http://www.w3.org/1999/xlink">
    <!-- Generator: Sketch 40.3 (33839) - http://www.bohemiancoding.com/sketch -->
    <title>ficon</title>
    <desc>Created with Sketch.</desc>
    <defs></defs>
    <g id="Symbols" stroke="none" stroke-width="1" fill="none" fill-rule="evenodd">
        <g id="megaFooter" transform="translate(-293.000000, -1283.000000)" fill="#4A4A4A">
            <g id="Group-2">
                <g id="Footer" transform="translate(0.000000, 1064.000000)">
                    <path d="M313.35732,219 C302.13234,219 293,228.13234 293,239.35732 C293,250.58148 302.13234,259.71464 313.35732,259.71464 C324.58148,259.71464 333.71464,250.58148 333.71464,239.35732 C333.71464,228.13234 324.58312,219 313.35732,219 L313.35732,219 Z M318.42,240.074 L315.10802,240.074 L315.10802,251.87872 L310.20032,251.87872 L310.20032,240.074 L307.86742,240.074 L307.86742,235.90184 L310.20032,235.90184 L310.20032,233.20322 C310.20032,231.27048 311.11872,228.25042 315.15312,228.25042 L318.78982,228.26436 L318.78982,232.31434 L316.15024,232.31434 C315.72056,232.31434 315.10966,232.52918 315.10966,233.45086 L315.10966,235.90266 L318.84886,235.90266 L318.42,240.074 L318.42,240.074 Z" id="ficon"></path>
                </g>
            </g>
        </g>
    </g>
</svg>