<?xml version="1.0" encoding="UTF-8" standalone="no"?>
<svg width="42px" height="42px" viewBox="0 0 42 42" version="1.1" xmlns="http://www.w3.org/2000/svg" xmlns:xlink="http://www.w3.org/1999/xlink">
    <!-- Generator: Sketch 40.3 (33839) - http://www.bohemiancoding.com/sketch -->
    <title>inst_icon</title>
    <desc>Created with Sketch.</desc>
    <defs></defs>
    <g id="Welcome" stroke="none" stroke-width="1" fill="none" fill-rule="evenodd">
        <g id="Lojas-pormenor" transform="translate(-658.000000, -2262.000000)" fill="#212121">
            <g id="Group-6-Copy" transform="translate(195.000000, 1832.000000)">
                <g id="Group-4">
                    <g id="69366" transform="translate(483.854652, 450.854652) rotate(1.000000) translate(-483.854652, -450.854652) translate(463.354652, 430.354652)">
                        <g id="inst_icon" transform="translate(-0.000000, 0.000000)">
                            <g id="Group" transform="translate(-0.000000, 0.000000)">
                                <path d="M20.3565,24.43272 C22.60248,24.43272 24.43354,22.60494 24.43354,20.35732 C24.43354,19.47008 24.14326,18.6509 23.66274,17.98178 C22.92228,16.95514 21.71852,16.28192 20.35896,16.28192 C18.99858,16.28192 17.79564,16.95432 17.05354,17.98096 C16.57138,18.65008 16.28356,19.46926 16.28274,20.3565 C16.28028,22.60412 18.1097,24.43272 20.3565,24.43272 L20.3565,24.43272 Z" id="Shape"></path>
                                <polygon id="Shape" points="29.25596 15.37172 29.25596 11.9556 29.25596 11.4472 28.7451 11.44884 25.33062 11.4595 25.34374 15.38484"></polygon>
                                <path d="M20.35732,0 C9.13234,0 -1.13686838e-13,9.13234 -1.13686838e-13,20.35732 C-1.13686838e-13,31.58148 9.13234,40.71464 20.35732,40.71464 C31.58148,40.71464 40.71464,31.58148 40.71464,20.35732 C40.71464,9.13234 31.58312,0 20.35732,0 L20.35732,0 Z M31.9349,17.98178 L31.9349,27.46098 C31.9349,29.93 29.92754,31.93654 27.46016,31.93654 L13.25448,31.93654 C10.78628,31.93654 8.77974,29.93 8.77974,27.46098 L8.77974,17.98178 L8.77974,13.2553 C8.77974,10.7871 10.78628,8.78056 13.25448,8.78056 L27.45934,8.78056 C29.92754,8.78056 31.9349,10.7871 31.9349,13.2553 L31.9349,17.98178 L31.9349,17.98178 Z" id="Shape"></path>
                                <path d="M26.69018,20.35732 C26.69018,23.84806 23.8497,26.69018 20.35732,26.69018 C16.86494,26.69018 14.02528,23.84806 14.02528,20.35732 C14.02528,19.51764 14.19256,18.71486 14.49104,17.98178 L11.03474,17.98178 L11.03474,27.46098 C11.03474,28.68606 12.0294,29.67826 13.25366,29.67826 L27.45852,29.67826 C28.68114,29.67826 29.67744,28.68606 29.67744,27.46098 L29.67744,17.98178 L26.2195,17.98178 C26.52044,18.71486 26.69018,19.51764 26.69018,20.35732 L26.69018,20.35732 Z" id="Shape"></path>
                            </g>
                        </g>
                    </g>
                </g>
            </g>
        </g>
    </g>
</svg>