<?xml version="1.0" encoding="UTF-8" standalone="no"?>
<svg width="219px" height="78px" viewBox="0 0 219 78" version="1.1" xmlns="http://www.w3.org/2000/svg" xmlns:xlink="http://www.w3.org/1999/xlink">
    <!-- Generator: Sketch 40.3 (33839) - http://www.bohemiancoding.com/sketch -->
    <title>Logo</title>
    <desc>Created with Sketch.</desc>
    <defs>
        <polygon id="path-1" points="29.9008606 3.35231737 29.9008606 0.165842545 0.365228393 0.165842545 0.365228393 3.35231737 29.9008606 3.35231737"></polygon>
    </defs>
    <g id="Welcome" stroke="none" stroke-width="1" fill="none" fill-rule="evenodd">
        <g id="LUZZO" transform="translate(-51.000000, -56.000000)">
            <g id="Header">
                <g id="Logo" transform="translate(51.000000, 56.000000)">
                    <g>
                        <g id="Group-16" transform="translate(15.144330, 0.000000)">
                            <path d="M13.6642333,46.7119424 C7.73089199,50.7651799 3.3908347,52.7974101 0.629372798,52.7974101 C0.280301895,52.7974101 0.0988541482,52.6161151 0.0988541482,52.2673381 C0.0988541482,51.7053237 0.629372798,51.5410156 1.73706809,51.1588489 C3.19661249,50.7478027 4.30580438,50.3411865 5.99891961,49.5210571 C7.69203485,48.7009277 11.3425662,46.258705 16.0619357,42.7519424 C19.5059867,40.2638849 23.1323495,37.5038849 26.9565768,34.4831655 C31.3726694,27.8676259 37.4416645,20.7064748 45.1799788,12.9677698 C53.7693696,4.36489209 59.5350877,0.0716546763 62.4641728,0.0716546763 C63.8293511,0.0716546763 64.5119402,0.79942446 64.5119402,2.25582734 C64.5119402,5.98964029 60.126953,11.9516547 51.3561145,20.1608633 C45.8176381,25.32 39.7788843,30.3099281 33.2545417,35.1505036 C31.7511175,36.2736691 29.8701092,38.6564029 27.6089247,42.3133813 C25.2725689,46.0454676 24.103527,48.6854676 24.103527,50.2333813 C24.103527,50.9766906 24.922634,51.3401439 26.5461593,51.3401439 C26.9263355,51.3401439 27.1233359,51.5835971 27.1233359,52.0532374 C27.1233359,52.6463309 26.3500229,52.9338129 24.8172215,52.9338129 C22.3892778,52.9338129 21.175306,51.6897842 21.175306,49.2008633 C21.175306,46.7732374 22.3287952,43.177554 24.6349097,38.4440288 L13.6642333,46.7119424 Z M62.1453432,1.45122302 C60.9918539,1.45122302 56.4098663,5.97323741 48.4123408,15.0172662 C40.7958557,23.665036 35.954657,29.6123741 33.8757842,32.8446043 C53.2526755,17.0952518 62.9488975,6.86935252 62.9488975,2.16431655 C62.9488975,1.69381295 62.6758618,1.45122302 62.1453432,1.45122302" id="Fill-1" fill="#FEFEFE"></path>
                            <path d="M59.4894666,44.4372086 C54.3303023,49.4746187 50.5363163,51.9928921 48.1092367,51.9928921 C46.2731583,51.9928921 45.3477748,50.976777 45.3477748,48.9281439 C45.3477748,46.5298705 46.4096761,43.8303022 48.5490315,40.8406619 L54.2845084,34.0740432 L41.5702055,44.6193669 C34.4073397,50.0668489 29.3691406,52.7974964 26.4556082,52.7974964 C26.1074014,52.7974964 25.9250896,52.5997986 25.9250896,52.2208058 C25.9250896,51.7200863 26.3493317,51.3868489 27.2150967,51.2038273 C28.3081033,50.9923165 29.5963823,50.5520288 31.0833898,49.8682878 C32.7993671,49.0645468 36.4257299,46.4858417 41.978895,42.1321727 C44.5131152,40.1431079 48.2759958,37.0326043 53.222607,32.7833957 C54.042578,31.9347626 55.377515,30.7658417 57.2135934,29.279223 C57.9575292,28.8087194 58.6401183,28.5661295 59.2622249,28.5661295 C60.9764741,28.5661295 61.842239,29.1264173 61.842239,30.250446 C61.842239,31.4176403 59.7625022,34.285554 55.6203094,38.8835396 C51.4781165,43.4659856 49.4001078,46.7439712 49.4001078,48.7002302 C49.4001078,49.2009496 49.6722794,49.4590791 50.2036621,49.4590791 C51.9792579,49.4590791 55.939139,46.0602302 62.0694807,39.2780719 C68.1998225,32.4959137 71.6741148,29.0979281 72.5087744,29.0979281 C72.920056,29.0979281 73.3278814,29.3094388 73.7218822,29.7497266 C74.1322997,30.1736115 74.3293001,30.6138993 74.3293001,31.0541871 C74.3293001,31.7672806 72.0378743,34.7724604 67.440334,40.0671367 C62.8427937,45.3626763 60.5522319,48.7459856 60.5522319,50.2334676 C60.5522319,50.9163453 61.0525093,51.2651223 62.0694807,51.2944748 C63.0708995,51.3264173 63.5720409,51.5828201 63.5720409,52.0533237 C63.5720409,52.6162014 62.8281051,52.8890072 61.3566503,52.8890072 C58.86736,52.8890072 57.6222829,51.9315971 57.6222829,50.0366331 C57.6222829,48.6700144 58.2461175,46.8052662 59.4894666,44.4372086" id="Fill-3" fill="#FEFEFE"></path>
                            <path d="M89.8987265,45.1950216 C96.2105159,39.7648058 99.3651146,35.3023597 99.3651146,31.7671079 C99.3651146,30.2347338 98.7913941,29.4612086 97.6361768,29.4612086 C96.4844156,29.4612086 93.5250893,31.4796259 88.7893031,35.5009209 C81.642854,41.6148777 77.1377657,45.3625036 75.2705819,46.7584748 C69.838382,50.7797698 65.7255664,52.7981871 62.9036219,52.7981871 C62.554551,52.7981871 62.3722393,52.6160288 62.3722393,52.2672518 C62.3722393,51.720777 62.6755162,51.3866763 63.2673815,51.2347338 C66.60602,50.3705612 70.4449359,48.2908489 74.7694405,44.9679712 L80.7779531,40.3553094 L89.396721,33.0577554 C93.7376424,29.4154532 96.4999683,27.4281151 97.6975234,27.0646619 C98.8950786,26.7150216 99.8368788,26.5328633 100.519468,26.5328633 C103.47793,26.5328633 104.96753,27.9737266 104.96753,30.8425036 C104.96753,35.2574676 100.471946,40.415741 91.4920105,46.3492662 C92.7344955,47.1530072 93.3574661,48.3219281 93.3574661,49.8534388 C93.3574661,53.1763165 89.6239627,58.6997698 82.1742367,66.4237986 C74.7236466,74.1461007 68.7764807,77.9999137 64.3301468,77.9999137 C61.8719619,77.9999137 60.6424374,76.9225036 60.6424374,74.7521439 C60.6424374,71.1417842 63.5257285,66.7268201 69.3078634,61.5063885 C75.0891342,56.2885468 81.6134767,52.9035108 88.880891,51.3271079 C89.5332389,50.4301295 89.8520685,49.5650935 89.8520685,48.7000576 C89.8520685,48.3219281 89.700862,47.9886906 89.4122737,47.7296978 C86.0598106,49.2620719 83.493621,50.0364604 81.7188892,50.0364604 C80.0340173,50.0364604 79.1855331,49.6410647 79.1855331,48.8373237 C79.1855331,47.8505612 80.3986409,46.9414964 82.8274486,46.0747338 C84.9071854,45.3322878 86.5911933,44.9679712 87.8950249,44.9679712 C88.6087194,44.9679712 89.2766199,45.0430791 89.8987265,45.1950216 M87.8950249,53.0701295 C81.2341645,54.5584748 75.2705819,57.7578993 70.0060052,62.6735827 C64.7397003,67.5901295 62.1156203,71.6114245 62.1156203,74.7521439 C62.1156203,75.7699856 62.599481,76.2698417 63.5862111,76.2698417 C66.394331,76.2698417 70.8086954,73.0997698 76.8336247,66.7561727 C81.5987881,61.7187626 85.2856335,57.1509928 87.8950249,53.0701295" id="Fill-5" fill="#FEFEFE"></path>
                            <path d="M120.352571,45.1950216 C126.666952,39.7648058 129.821551,35.3023597 129.821551,31.7671079 C129.821551,30.2347338 129.24351,29.4612086 128.091749,29.4612086 C126.936532,29.4612086 123.978933,31.4796259 119.245739,35.5009209 C112.09929,41.6148777 107.590746,45.3625036 105.723562,46.7584748 C100.291362,50.7797698 96.1802747,52.7981871 93.3574661,52.7981871 C93.0083952,52.7981871 92.8260835,52.6160288 92.8260835,52.2672518 C92.8260835,51.720777 93.1293604,51.3866763 93.7220897,51.2347338 C97.0598642,50.3705612 100.89878,48.2908489 105.222421,44.9679712 L111.232661,40.3553094 L119.853157,33.0577554 C124.191487,29.4154532 126.95122,27.4281151 128.151368,27.0646619 C129.352379,26.7150216 130.293315,26.5328633 130.97504,26.5328633 C133.934367,26.5328633 135.421374,27.9737266 135.421374,30.8425036 C135.421374,35.2574676 130.928382,40.415741 121.945855,46.3492662 C123.190932,47.1530072 123.813902,48.3219281 123.813902,49.8534388 C123.813902,53.1763165 120.078671,58.6997698 112.628081,66.4237986 C105.179219,74.1461007 99.2311889,77.9999137 94.7848551,77.9999137 C92.3266701,77.9999137 91.0962816,76.9225036 91.0962816,74.7521439 C91.0962816,71.1417842 93.9795727,66.7268201 99.7625716,61.5063885 C105.542978,56.2885468 112.067321,52.9035108 119.334735,51.3271079 C119.987083,50.4301295 120.305913,49.5650935 120.305913,48.7000576 C120.305913,48.3219281 120.157298,47.9886906 119.867846,47.7296978 C116.513655,49.2620719 113.947465,50.0364604 112.173597,50.0364604 C110.488726,50.0364604 109.639377,49.6410647 109.639377,48.8373237 C109.639377,47.8505612 110.854213,46.9414964 113.279565,46.0747338 C115.358437,45.3322878 117.045037,44.9679712 118.348869,44.9679712 C119.062564,44.9679712 119.730464,45.0430791 120.352571,45.1950216 M118.348869,53.0701295 C111.688873,54.5584748 105.723562,57.7578993 100.458985,62.6735827 C95.1944086,67.5901295 92.5686005,71.6114245 92.5686005,74.7521439 C92.5686005,75.7699856 93.0533252,76.2698417 94.0417834,76.2698417 C96.8473111,76.2698417 101.26254,73.0997698 107.287469,66.7561727 C112.05004,61.7187626 115.740342,57.1509928 118.348869,53.0701295" id="Fill-7" fill="#FEFEFE"></path>
                            <path d="M143.46478,40.9318273 L134.312901,47.9116835 C129.622045,51.1749928 126.133064,52.7980144 123.813989,52.7980144 C123.46319,52.7980144 123.280878,52.6158561 123.280878,52.2670791 C123.280878,51.6895252 123.584155,51.3562878 124.176884,51.2345612 C125.982721,50.9168633 127.513795,50.3850647 128.789113,49.6719712 C131.020057,48.4581583 134.630867,45.8785899 139.640553,41.9030504 L151.384542,32.2529784 C153.630174,30.2639137 155.010905,29.2788777 155.510318,29.2788777 C156.255982,29.2788777 157.074225,29.6889496 157.968503,30.5229065 C159.682752,29.2175827 161.200001,28.5657842 162.535802,28.5657842 C164.554192,28.5657842 165.554747,29.6449209 165.554747,31.8126906 C165.554747,35.0449209 162.978189,39.4452086 157.815569,45.013554 C152.581233,50.6423309 148.348316,53.4653525 145.11509,53.4653525 C142.096145,53.4653525 140.579761,51.8725468 140.579761,48.7007482 C140.579761,47.0466475 141.536249,44.4515396 143.46478,40.9318273 M158.530991,41.0069353 C159.623134,39.9761439 160.730829,38.5637698 161.823836,36.7905324 C163.035215,34.741036 163.642633,33.1180144 163.642633,31.8895252 C163.642633,30.7663597 163.158773,30.2043453 162.172907,30.2043453 C160.730829,30.2043453 159.274927,31.1142734 157.80088,32.9358561 C156.330289,34.7729784 155.601906,36.4253525 155.601906,37.897295 C155.601906,39.5660719 156.573083,40.5977266 158.530991,41.0069353 M154.174517,35.4549928 C148.134035,40.7358561 145.11509,45.0282302 145.11509,48.3511079 C145.11509,49.7781583 145.797679,50.4903885 147.16545,50.4903885 C149.379112,50.4903885 152.83958,47.8046331 157.560678,42.4331223 C155.070523,41.8426187 153.825446,40.2489496 153.825446,37.6400288 C153.825446,36.9571511 153.947275,36.2276547 154.174517,35.4549928" id="Fill-9" fill="#FEFEFE"></path>
                            <path d="M155.591106,40.0208633 C159.49828,43.0873381 162.988125,42.3776978 168.341698,42.3776978 C171.868697,42.3776978 175.046624,42.0246043 178.450065,41.9115108 L184.853443,41.6939568" id="Fill-11" fill="#FEFEFE"></path>
                            <g id="Group-15" transform="translate(154.967098, 39.520747)">
                                <mask id="mask-2" fill="white">
                                    <use xlink:href="#path-1"></use>
                                </mask>
                                <g id="Clip-14"></g>
                                <path d="M8.80514073,3.35231737 C5.7524984,3.35231737 3.13533066,3.01303679 0.365228393,0.834907293 L0.889698785,0.165842545 C4.02528866,2.62800082 6.88265865,2.56411593 10.8425397,2.4691519 C11.6417738,2.45015909 12.4824817,2.43030298 13.3750318,2.43030298 C15.4720494,2.43030298 17.4843913,2.3033965 19.4258822,2.17994326 C20.7383542,2.09620226 22.0957562,2.01073463 23.4704388,1.96497924 L29.8720882,1.74742528 L29.9014654,2.59778499 L23.498088,2.81447564 C22.1363659,2.86109434 20.7867403,2.94656197 19.4803165,3.02943967 C17.5215449,3.1528929 15.4971064,3.28066269 13.3750318,3.28066269 C12.489394,3.28066269 11.6564625,3.30138211 10.8615485,3.3186483 C10.1495821,3.33591449 9.46785702,3.35231737 8.80514073,3.35231737" id="Fill-13" fill="#FEFEFE" mask="url(#mask-2)"></path>
                            </g>
                        </g>
                        <polygon id="Fill-18" fill="#FEFEFE" points="14.7347745 51.8239033 11.7631211 52.0391013 4.31528957 52.1369953 0 52.1564054 0.00695733909 53.5522388 11.8266068 53.4315591 14.9052293 53.2104537 17.4742268 52.5758305 17.1133148 51.2238806"></polygon>
                        <g id="Group" transform="translate(157.268041, 62.865672)" fill="#FEFEFE">
                            <path d="M0.733619718,5.44349429 L0.733619718,9.31343284 L0,9.31343284 L0,0 L3.09233749,0 C4.03385136,0 4.762538,0.248494637 5.27628322,0.745483912 C5.79355207,1.24174232 6.05077704,1.89952224 6.05077704,2.71955455 C6.05077704,3.54616465 5.79355207,4.20686804 5.27628322,4.70166471 C4.762538,5.19573052 4.03385136,5.44349429 3.09233749,5.44349429 L0.733619718,5.44349429 Z M0.733619718,4.7915613 L3.09233749,4.7915613 C3.83159501,4.7915613 4.38691906,4.59641993 4.75901437,4.2054063 C5.1318144,3.81585442 5.31715732,3.32471207 5.31715732,2.73124841 C5.31715732,2.13486128 5.1318144,1.63933374 4.762538,1.24539665 C4.39185215,0.849266967 3.83511864,0.652663856 3.09233749,0.652663856 L0.733619718,0.652663856 L0.733619718,4.7915613 Z" id="Fill-19"></path>
                            <polygon id="Fill-21" points="8.06770272 9.31343284 9.07616556 9.31343284 9.07616556 0 8.06770272 0"></polygon>
                            <polygon id="Fill-22" points="12.257729 0 12.257729 0.653343452 17.1118324 0.653343452 12.1015541 8.71855412 12.1015541 9.31343284 18.1523311 9.31343284 18.1523311 8.661551 12.9364892 8.661551 17.9661226 0.557607443 17.9661226 0"></polygon>
                            <polygon id="Fill-23" points="20.3280839 0 20.3280839 0.653343452 25.1796499 0.653343452 20.1692568 8.71855412 20.1692568 9.31343284 26.2200339 9.31343284 26.2200339 8.661551 21.0034325 8.661551 26.0338458 0.557607443 26.0338458 0"></polygon>
                            <path d="M33.3758418,0 L29.2454224,9.31343284 L30.1725897,9.31343284 L31.2918497,6.71686764 L36.2768681,6.71686764 L37.3986893,9.31343284 L38.3215879,9.31343284 L34.2227571,0 L33.3758418,0 Z M33.7745408,0.991708126 L33.8172281,0.991708126 L35.9831797,6.03209939 L31.5906605,6.03209939 L33.7745408,0.991708126 Z" id="Fill-24"></path>
                            <path d="M41.0280439,5.10106657 L41.0280439,9.31343284 L40.3385136,9.31343284 L40.3385136,0 L43.1946658,0 C44.0994673,0 44.7949589,0.218700732 45.2791536,0.654639314 C45.759374,1.09277222 46.0011401,1.73205128 46.0011401,2.57320794 C46.0011401,3.06766177 45.8733021,3.51018332 45.6123272,3.90150402 C45.3546641,4.29136185 44.9910213,4.57662367 44.518087,4.75655806 C45.0393746,4.89992041 45.4136153,5.15885037 45.6454458,5.53334795 C45.8759516,5.90638264 45.9898798,6.37596749 45.9898798,6.93844529 L45.9898798,7.81544254 C45.9898798,8.10582445 46.022336,8.36548585 46.082612,8.59662107 C46.1442127,8.82775629 46.2475428,9.01500508 46.3892907,9.16056176 L46.3892907,9.31343284 L45.6825387,9.31343284 C45.5394661,9.16056176 45.4381231,8.94405535 45.3818214,8.66683937 C45.3241949,8.38962339 45.2950505,8.1014358 45.2950505,7.80300805 L45.2950505,6.95161122 C45.2950505,6.37889325 45.1268078,5.92759442 44.7916471,5.59771472 C44.4578111,5.2656407 43.9915005,5.10106657 43.3933777,5.10106657 L41.0280439,5.10106657 Z M41.0280439,4.44862157 L43.1085574,4.44862157 C43.871611,4.44862157 44.4286667,4.27819592 44.7783996,3.93953893 C45.1314444,3.60015051 45.3056485,3.14300015 45.3056485,2.56735642 C45.3056485,1.95148345 45.1314444,1.48043572 44.7810491,1.1483617 C44.4313162,0.817019122 43.9040673,0.652444993 43.1946658,0.652444993 L41.0280439,0.652444993 L41.0280439,4.44862157 Z" id="Fill-25"></path>
                            <polygon id="Fill-27" points="49.4146792 9.31343284 50.423142 9.31343284 50.423142 0 49.4146792 0"></polygon>
                            <path d="M56.5696334,0 L52.4400677,9.31343284 L53.367235,9.31343284 L54.4873488,6.71686764 L59.4715134,6.71686764 L60.5916272,9.31343284 L61.5162333,9.31343284 L57.4165487,0 L56.5696334,0 Z M56.9691862,0.991708126 L57.0110197,0.991708126 L59.1778251,6.03209939 L54.7844521,6.03209939 L56.9691862,0.991708126 Z" id="Fill-28"></path>
                        </g>
                    </g>
                </g>
            </g>
        </g>
    </g>
</svg>