<?xml version="1.0" encoding="utf-8"?>
<!-- Generator: Adobe Illustrator 16.0.0, SVG Export Plug-In . SVG Version: 6.00 Build 0)  -->
<!DOCTYPE svg PUBLIC "-//W3C//DTD SVG 1.1//EN" "http://www.w3.org/Graphics/SVG/1.1/DTD/svg11.dtd">
<svg version="1.1" id="Layer_1" xmlns="http://www.w3.org/2000/svg" xmlns:xlink="http://www.w3.org/1999/xlink" x="0px" y="0px"
	 width="184px" height="91px" viewBox="0 0 184 91" enable-background="new 0 0 184 91" xml:space="preserve">
<g>
	<g>
		<path fill="#FFFFFF" d="M36.545,50.244l-10.096,7.615c-5.461,3.73-9.453,5.604-11.996,5.604c-0.321,0-0.487-0.168-0.487-0.486
			c0-0.521,0.503-0.854,1.507-1.021c1.146-0.168,2.473-0.657,3.98-1.469c1.801-0.963,4.859-3.047,9.203-6.274
			c3.17-2.292,6.508-4.835,10.027-7.616c4.062-6.094,9.648-12.688,16.771-19.818c7.903-7.924,13.211-11.879,15.905-11.879
			c1.259,0,1.886,0.671,1.886,2.013c0,3.438-4.035,8.931-12.107,16.491c-5.098,4.752-10.655,9.349-16.659,13.808
			c-1.383,1.035-3.114,3.229-5.194,6.598c-2.15,3.438-3.228,5.869-3.228,7.295c0,0.688,0.754,1.021,2.248,1.021
			c0.351,0,0.53,0.225,0.53,0.657c0,0.545-0.711,0.811-2.121,0.811c-2.235,0-3.354-1.146-3.354-3.438
			C33.361,57.917,34.424,54.604,36.545,50.244L36.545,50.244z M71.067,16.171c-1.062,0-5.278,4.164-12.639,12.494
			c-7.011,7.967-11.466,13.444-13.377,16.422C62.883,30.58,71.808,21.16,71.808,16.828C71.808,16.395,71.556,16.171,71.067,16.171
			L71.067,16.171z"/>
		<path fill="#FFFFFF" d="M68.623,55.766c-4.75,4.642-8.239,6.959-10.475,6.959c-1.689,0-2.542-0.937-2.542-2.822
			c0-2.209,0.979-4.693,2.947-7.446l5.278-6.233l-11.703,9.715c-6.59,5.019-11.229,7.531-13.908,7.531
			c-0.32,0-0.489-0.182-0.489-0.529c0-0.461,0.394-0.771,1.188-0.938c1.006-0.192,2.19-0.604,3.562-1.229
			c1.578-0.739,4.915-3.116,10.026-7.127c2.332-1.832,5.796-4.696,10.348-8.609c0.755-0.781,1.982-1.858,3.674-3.228
			c0.684-0.434,1.312-0.656,1.885-0.656c1.578,0,2.375,0.516,2.375,1.551c0,1.074-1.914,3.718-5.727,7.95
			c-3.812,4.223-5.727,7.24-5.727,9.043c0,0.462,0.252,0.699,0.74,0.699c1.635,0,5.277-3.133,10.92-9.379
			c5.644-6.247,8.84-9.377,9.608-9.377c0.376,0,0.754,0.196,1.117,0.603c0.377,0.391,0.56,0.796,0.56,1.201
			c0,0.656-2.109,3.425-6.341,8.303c-4.231,4.877-6.341,7.991-6.341,9.362c0,0.629,0.462,0.949,1.396,0.979
			c0.922,0.027,1.383,0.267,1.383,0.698c0,0.518-0.686,0.771-2.038,0.771c-2.291,0-3.437-0.883-3.437-2.631
			C66.906,59.663,67.478,57.943,68.623,55.766L68.623,55.766z"/>
		<path fill="#FFFFFF" d="M96.607,56.464c5.812-5.004,8.717-9.112,8.717-12.369c0-1.412-0.531-2.124-1.594-2.124
			s-3.783,1.857-8.143,5.562c-6.578,5.634-10.725,9.085-12.443,10.371c-4.999,3.703-8.781,5.562-11.381,5.562
			c-0.322,0-0.488-0.168-0.488-0.489c0-0.504,0.278-0.812,0.823-0.951c3.071-0.797,6.604-2.711,10.585-5.771l5.531-4.247
			l7.934-6.723c3.992-3.355,6.535-5.186,7.639-5.521c1.104-0.322,1.971-0.489,2.6-0.489c2.723,0,4.092,1.327,4.092,3.97
			c0,4.065-4.136,8.815-12.4,14.28c1.146,0.74,1.717,1.816,1.717,3.229c0,3.062-3.436,8.146-10.291,15.264
			C82.646,83.13,77.172,86.68,73.08,86.68c-2.264,0-3.396-0.992-3.396-2.992c0-3.322,2.653-7.393,7.976-12.197
			c5.32-4.809,11.325-7.928,18.015-9.381c0.603-0.821,0.896-1.618,0.896-2.418c0-0.349-0.141-0.653-0.404-0.895
			c-3.086,1.411-5.444,2.124-7.08,2.124c-1.551,0-2.332-0.362-2.332-1.104c0-0.905,1.119-1.746,3.352-2.543
			c1.913-0.686,3.462-1.021,4.666-1.021C95.422,56.253,96.037,56.323,96.607,56.464L96.607,56.464z M94.766,63.717
			c-6.128,1.369-11.619,4.317-16.465,8.848c-4.846,4.527-7.262,8.23-7.262,11.123c0,0.938,0.446,1.398,1.354,1.398
			c2.582,0,6.646-2.922,12.19-8.764C88.971,71.684,92.365,67.477,94.766,63.717L94.766,63.717z"/>
		<path fill="#FFFFFF" d="M124.637,56.464c5.812-5.004,8.713-9.112,8.713-12.369c0-1.412-0.529-2.124-1.59-2.124
			c-1.062,0-3.785,1.857-8.143,5.562c-6.578,5.634-10.727,9.085-12.442,10.371c-5,3.703-8.784,5.562-11.382,5.562
			c-0.32,0-0.488-0.168-0.488-0.489c0-0.504,0.279-0.812,0.822-0.951c3.074-0.797,6.605-2.711,10.586-5.771l5.531-4.247l7.933-6.723
			c3.993-3.355,6.534-5.186,7.64-5.521c1.104-0.322,1.971-0.489,2.598-0.489c2.725,0,4.092,1.327,4.092,3.97
			c0,4.065-4.133,8.815-12.396,14.28c1.145,0.74,1.717,1.816,1.717,3.229c0,3.062-3.436,8.146-10.291,15.264
			c-6.858,7.111-12.332,10.664-16.426,10.664c-2.262,0-3.395-0.992-3.395-2.992c0-3.324,2.654-7.395,7.977-12.199
			c5.32-4.807,11.324-7.926,18.016-9.379c0.6-0.823,0.895-1.62,0.895-2.418c0-0.351-0.141-0.655-0.403-0.896
			c-3.089,1.411-5.446,2.124-7.079,2.124c-1.553,0-2.332-0.36-2.332-1.104c0-0.906,1.113-1.746,3.352-2.543
			c1.912-0.687,3.463-1.021,4.664-1.021C123.449,56.253,124.064,56.323,124.637,56.464L124.637,56.464z M122.793,63.717
			c-6.131,1.369-11.618,4.317-16.465,8.848c-4.848,4.527-7.264,8.23-7.264,11.123c0,0.938,0.449,1.398,1.354,1.398
			c2.584,0,6.646-2.922,12.189-8.764C116.998,71.684,120.391,67.477,122.793,63.717L122.793,63.717z"/>
		<path fill="#FFFFFF" d="M145.906,52.536l-8.422,6.429c-4.314,3.006-7.527,4.501-9.664,4.501c-0.32,0-0.488-0.168-0.488-0.489
			c0-0.531,0.279-0.838,0.824-0.951c1.66-0.293,3.07-0.779,4.244-1.438c2.053-1.119,5.377-3.494,9.983-7.156l10.812-8.89
			c2.066-1.829,3.336-2.738,3.799-2.738c0.686,0,1.438,0.378,2.262,1.146c1.578-1.201,2.977-1.802,4.203-1.802
			c1.857,0,2.779,0.991,2.779,2.989c0,2.979-2.373,7.03-7.121,12.159c-4.817,5.185-8.715,7.785-11.688,7.785
			c-2.781,0-4.181-1.468-4.181-4.39C143.25,58.168,144.132,55.777,145.906,52.536L145.906,52.536z M159.771,52.605
			c1.008-0.949,2.023-2.25,3.029-3.888c1.117-1.887,1.678-3.383,1.678-4.514c0-1.035-0.447-1.552-1.354-1.552
			c-1.328,0-2.668,0.839-4.022,2.516c-1.354,1.689-2.024,3.215-2.024,4.57C157.076,51.277,157.973,52.229,159.771,52.605
			L159.771,52.605z M155.766,47.491c-5.561,4.862-8.336,8.817-8.336,11.88c0,1.312,0.627,1.97,1.883,1.97
			c2.039,0,5.225-2.473,9.566-7.421c-2.291-0.545-3.438-2.013-3.438-4.417C155.443,48.875,155.557,48.203,155.766,47.491
			L155.766,47.491z"/>
		<path fill="#FFFFFF" d="M157.07,51.695c3.594,2.824,6.807,2.172,11.73,2.172c3.244,0,6.174-0.324,9.305-0.43L184,53.236"/>
		<polyline fill="#FFFFFF" points="17.244,62.193 15.011,62.771 12.195,62.98 5.379,63.074 1.434,63.094 		"/>
	</g>
	<g>
		<path fill="#FFFFFF" d="M81.109,4h4.234c1.127,0,2.896,0.404,2.896,2.787c0,1.74-1.144,2.73-3.119,2.73h-3.398v4.428h-0.613V4
			L81.109,4z M81.723,8.987h3.494c1.797,0,2.41-1.184,2.41-2.214c0-0.74-0.334-2.243-2.325-2.243h-3.579V8.987L81.723,8.987z"/>
		<path fill="#FFFFFF" d="M90.382,4h0.614v9.945h-0.614V4z"/>
		<path fill="#FFFFFF" d="M93.293,4h6.979v0.53l-6.742,8.886h6.867v0.529h-7.506v-0.529l6.713-8.886h-6.311V4L93.293,4z"/>
		<path fill="#FFFFFF" d="M101.814,4h6.977v0.53l-6.739,8.886h6.866v0.529h-7.506v-0.529l6.711-8.886h-6.309V4z"/>
		<path fill="#FFFFFF" d="M114.443,4l3.928,9.945h-0.652l-1.253-3.188h-4.765l-1.27,3.188h-0.652L113.775,4H114.443z M116.27,10.228
			L114.139,4.6h-0.029l-2.215,5.628H116.27z"/>
		<path fill="#FFFFFF" d="M120.123,4h4.15c1.74,0,3.146,0.642,3.146,2.563c0,1.337-0.811,2.326-2.131,2.549v0.026
			c1.477,0.169,1.838,1.103,1.936,2.133c0.1,1.03-0.066,2.145,0.336,2.674h-0.684c-0.377-0.683-0.152-1.824-0.268-2.785
			c-0.127-0.962-0.6-1.741-2.34-1.741h-3.539v4.526h-0.609L120.123,4L120.123,4z M124.273,8.89c1.449,0,2.535-0.683,2.535-2.283
			c0-1.507-1.195-2.076-2.535-2.076h-3.537V8.89H124.273z"/>
		<path fill="#FFFFFF" d="M129.941,4h0.61v9.945h-0.61V4z"/>
		<path fill="#FFFFFF" d="M136.973,4l3.928,9.945h-0.654l-1.252-3.188h-4.766l-1.268,3.188h-0.654L136.305,4H136.973z
			 M138.797,10.228L136.666,4.6h-0.027l-2.215,5.628H138.797z"/>
	</g>
</g>
</svg>
