<?xml version="1.0" encoding="utf-8"?>
<!-- Generator: Adobe Illustrator 16.0.0, SVG Export Plug-In . SVG Version: 6.00 Build 0)  -->
<!DOCTYPE svg PUBLIC "-//W3C//DTD SVG 1.1//EN" "http://www.w3.org/Graphics/SVG/1.1/DTD/svg11.dtd">
<svg version="1.1" id="Layer_1" xmlns="http://www.w3.org/2000/svg" xmlns:xlink="http://www.w3.org/1999/xlink" x="0px" y="0px"
	 width="48.43px" height="59px" viewBox="0 0 48.43 59" enable-background="new 0 0 48.43 59" xml:space="preserve">
<g>
	<path fill="#F4D680" d="M25.098,0C13.494,0,4.084,9.407,4.084,21.013c0,12.409,21.015,36.375,21.015,36.375
		s21.015-23.045,21.015-36.375C46.113,9.407,36.705,0,25.098,0z"/>
</g>
<g>
	<g>
		<path fill="#212121" d="M9.364,22.706l-2.691,2.031c-1.456,0.995-2.521,1.495-3.198,1.495c-0.085,0-0.131-0.045-0.131-0.131
			c0-0.138,0.135-0.228,0.402-0.272c0.306-0.044,0.658-0.175,1.062-0.391c0.479-0.258,1.296-0.812,2.454-1.674
			c0.845-0.611,1.734-1.289,2.674-2.031c1.083-1.625,2.572-3.384,4.473-5.284c2.107-2.113,3.522-3.168,4.241-3.168
			c0.335,0,0.503,0.179,0.503,0.536c0,0.918-1.075,2.382-3.229,4.398c-1.358,1.268-2.841,2.492-4.441,3.682
			c-0.369,0.275-0.831,0.861-1.385,1.76c-0.574,0.917-0.86,1.564-0.86,1.945c0,0.183,0.201,0.271,0.601,0.271
			c0.094,0,0.143,0.06,0.143,0.175c0,0.146-0.189,0.217-0.565,0.217c-0.597,0-0.895-0.306-0.895-0.917
			C8.515,24.752,8.798,23.869,9.364,22.706L9.364,22.706z M18.569,13.62c-0.282,0-1.407,1.111-3.369,3.332
			c-1.87,2.124-3.058,3.585-3.568,4.379c4.757-3.868,7.136-6.38,7.136-7.535C18.767,13.68,18.7,13.62,18.569,13.62L18.569,13.62z"/>
		<path fill="#212121" d="M17.917,24.179c-1.267,1.237-2.196,1.855-2.793,1.855c-0.45,0-0.679-0.249-0.679-0.753
			c0-0.589,0.262-1.252,0.786-1.986l1.407-1.662l-3.12,2.59c-1.758,1.339-2.994,2.01-3.709,2.01c-0.085,0-0.13-0.049-0.13-0.143
			c0-0.122,0.104-0.204,0.316-0.249c0.269-0.052,0.584-0.16,0.948-0.328c0.422-0.197,1.312-0.831,2.675-1.9
			c0.622-0.488,1.545-1.253,2.759-2.296c0.201-0.209,0.529-0.496,0.979-0.861c0.184-0.115,0.352-0.175,0.503-0.175
			c0.421,0,0.634,0.138,0.634,0.414c0,0.286-0.511,0.991-1.527,2.12c-1.017,1.126-1.526,1.931-1.526,2.411
			c0,0.123,0.066,0.187,0.197,0.187c0.436,0,1.407-0.835,2.911-2.501c1.505-1.666,2.356-2.5,2.562-2.5
			c0.102,0,0.201,0.052,0.299,0.16c0.101,0.104,0.148,0.212,0.148,0.32c0,0.175-0.562,0.913-1.689,2.213
			c-1.129,1.302-1.691,2.133-1.691,2.498c0,0.168,0.123,0.253,0.373,0.261c0.246,0.008,0.369,0.07,0.369,0.186
			c0,0.139-0.184,0.206-0.543,0.206c-0.61,0-0.917-0.235-0.917-0.701C17.459,25.218,17.612,24.76,17.917,24.179L17.917,24.179z"/>
		<path fill="#212121" d="M25.38,24.364c1.55-1.333,2.323-2.43,2.323-3.298c0-0.376-0.142-0.566-0.426-0.566
			c-0.281,0-1.008,0.495-2.17,1.483c-1.754,1.502-2.859,2.423-3.317,2.766c-1.333,0.987-2.343,1.483-3.035,1.483
			c-0.085,0-0.13-0.045-0.13-0.131c0-0.134,0.075-0.216,0.221-0.253c0.818-0.213,1.762-0.724,2.822-1.54l1.476-1.133l2.114-1.792
			c1.065-0.895,1.743-1.383,2.037-1.473c0.295-0.085,0.524-0.131,0.692-0.131c0.727,0,1.092,0.354,1.092,1.059
			c0,1.085-1.104,2.352-3.309,3.81c0.307,0.197,0.458,0.484,0.458,0.86c0,0.816-0.916,2.173-2.744,4.07
			c-1.829,1.896-3.288,2.843-4.379,2.843c-0.604,0-0.904-0.265-0.904-0.797c0-0.888,0.708-1.972,2.126-3.254
			c1.419-1.281,3.021-2.113,4.803-2.5c0.16-0.221,0.238-0.433,0.238-0.646c0-0.093-0.037-0.175-0.106-0.238
			c-0.822,0.376-1.453,0.566-1.889,0.566c-0.414,0-0.622-0.097-0.622-0.294c0-0.243,0.298-0.466,0.895-0.679
			c0.51-0.183,0.924-0.272,1.244-0.272C25.064,24.309,25.228,24.327,25.38,24.364L25.38,24.364z M24.889,26.299
			c-1.636,0.366-3.1,1.151-4.392,2.359c-1.292,1.207-1.938,2.195-1.938,2.967c0,0.25,0.119,0.373,0.36,0.373
			c0.688,0,1.772-0.779,3.251-2.338C23.344,28.424,24.249,27.302,24.889,26.299L24.889,26.299z"/>
		<path fill="#212121" d="M32.855,24.364c1.549-1.333,2.323-2.43,2.323-3.298c0-0.376-0.143-0.566-0.426-0.566
			c-0.282,0-1.009,0.495-2.171,1.483c-1.753,1.502-2.859,2.423-3.317,2.766c-1.333,0.987-2.344,1.483-3.035,1.483
			c-0.085,0-0.13-0.045-0.13-0.131c0-0.134,0.073-0.216,0.22-0.253c0.819-0.213,1.762-0.724,2.822-1.54l1.477-1.133l2.114-1.792
			c1.063-0.895,1.742-1.383,2.037-1.473c0.294-0.085,0.524-0.131,0.691-0.131c0.727,0,1.092,0.354,1.092,1.059
			c0,1.085-1.104,2.352-3.308,3.81c0.305,0.197,0.459,0.484,0.459,0.86c0,0.816-0.917,2.173-2.746,4.07
			c-1.828,1.896-3.287,2.843-4.379,2.843c-0.604,0-0.905-0.265-0.905-0.797c0-0.888,0.708-1.972,2.127-3.254
			c1.42-1.281,3.021-2.113,4.805-2.5c0.16-0.221,0.237-0.433,0.237-0.646c0-0.093-0.036-0.175-0.106-0.238
			c-0.822,0.376-1.452,0.566-1.889,0.566c-0.414,0-0.622-0.097-0.622-0.294c0-0.243,0.298-0.466,0.895-0.679
			c0.51-0.183,0.924-0.272,1.243-0.272C32.539,24.309,32.702,24.327,32.855,24.364L32.855,24.364z M32.363,26.299
			c-1.635,0.366-3.099,1.151-4.391,2.359c-1.292,1.207-1.938,2.195-1.938,2.967c0,0.25,0.118,0.373,0.361,0.373
			c0.688,0,1.771-0.779,3.25-2.338C30.817,28.424,31.722,27.302,32.363,26.299L32.363,26.299z"/>
		<path fill="#212121" d="M38.527,23.317l-2.246,1.715c-1.15,0.802-2.008,1.2-2.575,1.2c-0.087,0-0.131-0.045-0.131-0.131
			c0-0.142,0.073-0.224,0.219-0.253c0.442-0.078,0.819-0.209,1.133-0.385c0.548-0.298,1.435-0.932,2.662-1.908l2.884-2.37
			c0.551-0.488,0.891-0.73,1.013-0.73c0.184,0,0.385,0.101,0.604,0.306c0.422-0.32,0.793-0.48,1.121-0.48
			c0.496,0,0.741,0.265,0.741,0.798c0,0.794-0.633,1.874-1.899,3.242c-1.284,1.383-2.322,2.075-3.116,2.075
			c-0.74,0-1.111-0.391-1.111-1.17C37.819,24.819,38.053,24.183,38.527,23.317L38.527,23.317z M42.224,23.336
			c0.269-0.253,0.539-0.6,0.81-1.036c0.297-0.503,0.444-0.901,0.444-1.203c0-0.276-0.119-0.414-0.359-0.414
			c-0.354,0-0.711,0.224-1.073,0.671c-0.359,0.451-0.539,0.857-0.539,1.219C41.505,22.981,41.744,23.235,42.224,23.336
			L42.224,23.336z M41.155,21.973c-1.481,1.297-2.224,2.352-2.224,3.167c0,0.351,0.168,0.525,0.504,0.525
			c0.543,0,1.394-0.659,2.551-1.979c-0.61-0.146-0.916-0.536-0.916-1.178C41.07,22.342,41.099,22.162,41.155,21.973L41.155,21.973z"
			/>
		<g>
			<path fill="#212121" d="M41.503,23.094c0.958,0.753,1.813,0.579,3.129,0.579c0.865,0,1.646-0.087,2.479-0.114l1.571-0.054"/>
			<path fill="#212121" d="M43.51,23.795c-0.748,0-1.392-0.084-2.07-0.619l0.129-0.164c0.771,0.604,1.472,0.589,2.443,0.565
				c0.194-0.005,0.401-0.01,0.62-0.01c0.515,0,1.009-0.03,1.484-0.061c0.321-0.021,0.654-0.042,0.991-0.053l1.572-0.054l0.007,0.209
				l-1.57,0.053c-0.336,0.012-0.666,0.032-0.986,0.053c-0.479,0.03-0.979,0.062-1.498,0.062c-0.218,0-0.422,0.006-0.616,0.01
				C43.84,23.791,43.673,23.795,43.51,23.795z"/>
		</g>
		<g>
			<polyline fill="#212121" points="4.216,25.894 3.621,26.048 2.871,26.104 1.053,26.128 0,26.133 			"/>
			<polygon fill="#212121" points="0.001,26.309 0,25.957 1.052,25.952 2.868,25.928 3.592,25.874 4.172,25.724 4.26,26.062 
				3.634,26.223 2.883,26.278 			"/>
		</g>
	</g>
</g>
</svg>
