<?xml version="1.0" encoding="UTF-8" standalone="no"?>
<svg width="22px" height="22px" viewBox="0 0 22 22" version="1.1" xmlns="http://www.w3.org/2000/svg" xmlns:xlink="http://www.w3.org/1999/xlink">
    <!-- Generator: Sketch 40.3 (33839) - http://www.bohemiancoding.com/sketch -->
    <title>picas</title>
    <desc>Created with Sketch.</desc>
    <defs>
        <polygon id="path-1" points="0.000925588698 21.5181818 21.2015347 21.5181818 21.2015347 0.154763182 0.000925588698 0.154763182 0.000925588698 21.5181818"></polygon>
    </defs>
    <g id="Welcome" stroke="none" stroke-width="1" fill="none" fill-rule="evenodd">
        <g id="EMENTA-Copy-4" transform="translate(-205.000000, -1725.000000)">
            <g id="specials" transform="translate(205.000000, 1725.000000)">
                <g id="picas">
                    <g id="Group-12" transform="translate(0.000000, 0.147109)">
                        <mask id="mask-2" fill="white">
                            <use xlink:href="#path-1"></use>
                        </mask>
                        <g id="Clip-11"></g>
                        <path d="M21.0812082,9.24652227 C20.6901469,6.697845 19.5331611,4.56656318 17.6333903,2.85267682 C16.0390637,1.41627682 14.1716885,0.560499545 12.0590323,0.250367727 C11.8044954,0.215390455 11.5545865,0.185076818 11.3023636,0.154763182 L9.89546876,0.154763182 C9.59696641,0.194404091 9.29615008,0.229381364 8.9999617,0.276017727 C6.45227881,0.681754091 4.3234248,1.86864955 2.62265557,3.81338591 C1.22964458,5.40368591 0.398928728,7.26447682 0.0957984301,9.36777682 C0.0587748823,9.61961318 0.0310072214,9.87611318 0.000925588698,10.1256177 L0.000925588698,11.545695 C0.0379491366,11.8371723 0.0749726845,12.1333132 0.118938148,12.4247905 C0.509999372,14.9734677 1.66698524,17.1070814 3.56907002,18.8186359 C5.16108257,20.2573677 7.02845777,21.1108132 9.14342794,21.4232768 C9.39102292,21.4582541 9.64555981,21.4862359 9.89546876,21.5188814 L11.3023636,21.5188814 C11.6031799,21.4769086 11.9016823,21.4419314 12.2001846,21.395295 C14.7478675,20.9918905 16.8744075,19.8026632 18.5751768,17.8579268 C19.9705017,16.2676268 20.7989036,14.4068359 21.1066619,12.3035359 C21.1413714,12.0516995 21.1691391,11.7975314 21.2015347,11.545695 L21.2015347,10.1256177 C21.1598832,9.83414045 21.1251736,9.53799955 21.0812082,9.24652227" id="Fill-10" fill="#ED1C24" mask="url(#mask-2)"></path>
                    </g>
                    <path d="M4.99864176,10.5686341 C5.11202637,10.9720387 5.3064,11.3731114 5.54473909,11.7158887 C5.80853187,12.0936432 6.11166217,12.455075 6.43561821,12.7815296 C7.02799498,13.3854705 7.7059887,13.8821478 8.43026185,14.3112023 C8.95784741,14.6213341 9.54328226,14.8824978 10.1194612,15.085366 C12.1117909,15.7872432 14.5738568,15.9971069 16.4759416,14.9151432 C16.7767579,14.7449205 16.9549338,14.5303932 17.1585633,14.238916 C17.2927736,14.045375 17.507973,13.7608932 17.4987171,13.5160523 C17.4871473,13.1942614 17.1585633,13.238566 16.934108,13.2828705 C16.5407328,13.3644841 16.1542995,13.4367705 15.7470405,13.4414341 C15.5943184,13.4460978 15.4415962,13.4391023 15.2842462,13.4251114 C14.2961802,13.3341705 13.3058003,12.8981205 12.6648301,12.1332841 C12.2529432,11.6436023 11.8942776,11.1049523 11.5564377,10.5639705 C11.1584345,9.93204777 10.7789432,9.27913868 10.3601143,8.65654323 C9.77930738,7.79610232 9.14990706,7.19216141 8.1317595,6.91234323 C7.74301224,6.80507959 7.20154286,6.7934205 6.68552716,6.90301595 C6.61842198,6.84938414 6.54900283,6.79808414 6.48652559,6.73745686 C6.17876735,6.44597959 6.10703422,6.00759777 6.14868571,5.59486595 C6.18802323,5.25908414 5.73911272,5.23576595 5.51002951,5.21711141 C5.38738901,5.21011595 5.21152716,5.2031205 5.11896829,5.29639323 C4.96161821,5.45495686 5.0194675,5.70446141 5.05649105,5.89100686 C5.13053815,6.22445686 5.25549262,6.54624777 5.41052873,6.84938414 C5.49383171,7.01261141 5.57713469,7.18050232 5.67663548,7.33440232 C5.46837802,7.49529777 5.3064,7.69583414 5.22309702,7.94067505 C5.05186311,8.42802505 4.93385055,8.97833414 4.89451303,9.49832959 C4.86674537,9.84343868 4.90145495,10.2305205 4.99864176,10.5686341" id="Fill-13" fill="#FEFEFE"></path>
                </g>
            </g>
        </g>
    </g>
</svg>