<svg version="1.1" baseProfile="basic" id="Layer_1" xmlns="http://www.w3.org/2000/svg" x="0" y="0" viewBox="0 0 430.8 55" xml:space="preserve"><style>.st5{fill:#fbed22}.st6{fill:#010101}.st7{fill:#d51f26}.st8{fill:#006536}</style><path fill="#fff" d="M0 0h429.5v55H0z"/><path d="M136.7 29.9c0-6.8-5.4-12.2-12.4-12.2-7.1 0-12.4 5.4-12.4 12.2 0 7.1 5.4 12.6 12.4 12.6 7.1 0 12.4-5.5 12.4-12.6zm-4.6 0c0 4.9-3.5 8.7-7.9 8.7s-7.9-3.8-7.9-8.7c0-4.8 3.5-8.3 7.9-8.3s7.9 3.6 7.9 8.3zM111 24.8c0-4.5-3.6-7.1-7.8-7.1-5.7 0-8 4.8-8 4.8l3 2.1s1.7-3 4.5-3c2 0 3.6 1.2 3.6 3.4 0 5.2-11.5 6.3-11.5 15 0 .7.1 1.3.2 2.2h16.6v-6.7H108v3h-8.3c.2-4.9 11.3-6.3 11.3-13.7z" fill="#b42025"/><path d="M162.2 17.8c0-4-3.1-7.2-7.3-7.2-4.3 0-7.3 3.1-7.3 7.2s3.1 7.3 7.3 7.3c4.2 0 7.3-3.2 7.3-7.3zm-3.7 0c0 2.4-1.7 4.3-3.8 4.3-2 0-3.8-1.8-3.8-4.3 0-2.4 1.7-4.1 3.8-4.1 2.2 0 3.8 1.7 3.8 4.1zm-21.6 7.1H147v-4.4h-2.9v1.7h-3.5c.1-2.2 6.1-3.1 6.1-7.2 0-3-2.5-4.3-4.8-4.3-3.6 0-4.9 3-4.9 3l2.4 1.6s.9-1.6 2.3-1.6c.7 0 1.5.3 1.5 1.4 0 2.4-6.3 3.1-6.3 8.2-.2.5-.1 1 0 1.6z" fill="#81b140"/><path d="M95.5 29.9c0-.8-.1-1.5-.2-2.3-1-5.8-5.7-10.1-12.1-10.1C76 17.5 70.6 23 70.6 30c0 7.2 5.4 12.8 12.6 12.8 2.3 0 4.3-.6 6.1-1.5l-2.2-3.5c-1.2.7-2.5 1.1-3.9 1.1-4.4 0-8-3.8-8-8.8 0-4.8 3.6-8.5 8-8.5s8 3.6 8 8.5c0 .5-.1 1.4-.1 1.4-.1.8-.6 1.4-1.3 1.4-.7 0-1.3-.6-1.4-1.3v-2.5c0-2.9-1.7-4.5-4.9-4.5-2.8 0-4.6 1.4-4.6 1.4l1.2 2.3s1.7-.8 3.1-.8c.8 0 1.5.3 1.5 1.2v.3H84c-1.7 0-5.9.4-5.9 3.7 0 2.2 1.7 3.4 3.6 3.4 2.3 0 3.2-1.8 3.2-1.8h.1c.9 2.2 3.4 2.4 4.7 2.4 3.5-.3 5.8-2.9 5.8-6.8zm-10.7 1.2c0 .9-.9 2.3-1.9 2.3-.8 0-1.2-.4-1.2-1.2 0-1 1.5-1.4 2.7-1.4h.3l.1.3zm-14.7 2.3c0-5.4-3-9-7.7-9-3.6 0-5.2 2.5-5.2 2.5h-.1s.1-.6.1-1.4V14.2h-6.9v3.2H53v24.7h4v-1c0-.7-.1-1.3-.1-1.3h.1s1.4 2.8 5.1 2.8c4.6-.1 8-3.6 8-9.2zm-4.3.2c0 3.4-2 5.4-4.4 5.4-2.9 0-4.3-2.7-4.3-5.3 0-3.8 2.1-5.5 4.3-5.5 2.6-.1 4.4 2 4.4 5.4zm-17.6-5.5H50v-3.2H39.3c-.1.7-.2 1.2-.2 1.8 0 6.4 7.8 7.3 7.8 10.3 0 1.4-1 1.8-1.9 1.8-1.7 0-2.8-2-2.8-2l-2.9 2s1.6 3.8 6.1 3.8c2.9 0 6-1.7 6-5.4 0-5.1-7.5-6.4-7.6-9.1h4.4zm-19 14h9.3v-3.2H36v-14h-7V28h2.7v10.8h-2.5v3.3zm7.3-25.6c0-1.5-1.2-2.8-2.8-2.8-1.7 0-2.8 1.2-2.8 2.8 0 1.6 1.2 2.8 2.8 2.8s2.8-1.2 2.8-2.8zM10 42.1h18.2v-7.3h-3.8v3.7h-7.1V17.7h2.9v-3.5H10v3.5h2.9v21.2H10v3.2z" fill="#4195d1"/><g><path d="M350.3 11.7h-46.4v31.5h46.4V11.7z" fill="#223c78"/><path class="st5" d="M326.2 18.8l.9-.7.9.7-.4-1.1 1-.7h-1.2l-.3-1.1-.4 1.1h-1.1l.9.7zM321.4 20l.9-.6.9.6-.3-1 .9-.7h-1.1l-.4-1.1-.3 1.1h-1.2l.9.7zM318.8 20.7l-.3 1.1h-1.2l1 .6-.4 1.1.9-.6 1 .6-.4-1.1.9-.6h-1.1zM317.5 27.6l1 .7-.4-1.1 1-.7h-1.2l-.4-1.1-.3 1.1H316l1 .7-.4 1.1zM319.2 31.3l-.4-1.1-.3 1.1h-1.2l1 .7-.4 1.1.9-.7 1 .7-.4-1.1.9-.7zM322.7 34.8l-.4-1.1-.3 1.1h-1.2l1 .7-.4 1.1.9-.7.9.7-.3-1.1.9-.7zM327.4 36.1l-.3-1.1-.4 1.1h-1.1l.9.6-.3 1.1.9-.6.9.6-.4-1.1 1-.6zM332.2 34.8l-.4-1.1-.3 1.1h-1.2l1 .7-.4 1.1.9-.7 1 .7-.4-1.1.9-.7zM335.7 31.3l-.4-1.1-.3 1.1h-1.2l1 .7-.4 1.1.9-.7 1 .7-.4-1.1.9-.7zM338.1 26.5h-1.2l-.3-1.1-.4 1.1h-1.1l.9.7-.3 1.1.9-.7.9.7-.3-1.1zM334.4 23.5l.9-.7 1 .7-.4-1.1.9-.6h-1.1l-.4-1.1-.3 1.1h-1.2l1 .6zM331.9 17.2l-.4 1.1h-1.2l1 .7-.4 1 1-.6.9.6-.4-1 1-.7h-1.2z"/><g><path class="st6" d="M357.5 15.4v.5c0 .2-.1.3-.2.5s-.2.3-.5.4c-.2.1-.5.2-.8.2-.3 0-.6-.1-.8-.2-.2-.1-.4-.2-.5-.4-.1-.2-.2-.3-.2-.5V13.1h.5V15.9c0 .2.1.3.3.4.1.1.4.2.6.2.3 0 .5-.1.7-.2.1-.1.2-.2.3-.4 0-.2.1-.4.1-.7V13h.5v2.4zM361.3 17h-.5l-2-3v3h-.5v-3.8h.5l2 3v-3h.5V17zM362.8 17h-.5v-3.8h.5V17zM366.8 17h-.6l-.4-1.2h-1.6l-.4 1.2h-.5l1.5-3.8h.5l1.5 3.8zm-.9-4.7c0 .2-.1.3-.1.4-.1.1-.2.1-.4.1h-.2c-.1 0-.1-.1-.2-.1-.1-.1-.2-.1-.3-.1-.1 0-.2.1-.2.2h-.3c0-.2.1-.3.2-.4.1-.1.2-.2.4-.2.1 0 .2 0 .4.1.1.1.2.1.3.1.1 0 .2-.1.2-.2h.2zm-.3 3.2c-.3-.8-.5-1.3-.5-1.4 0-.1-.1-.3-.1-.4 0 .3-.1.5-.2.7l-.4 1.1h1.2zM368.9 13.2c.5 0 1 .2 1.3.5.3.4.5.8.5 1.4 0 .6-.2 1.1-.5 1.4-.3.4-.8.5-1.3.5s-1-.2-1.3-.6c-.3-.4-.5-.8-.5-1.4 0-.6.2-1.1.5-1.5.3-.1.7-.3 1.3-.3zm0 3.5c.4 0 .7-.1.9-.4.2-.3.4-.6.4-1.1 0-.5-.1-.9-.4-1.1-.2-.3-.6-.4-.9-.4-.4 0-.7.1-.9.4-.2.3-.4.7-.4 1.2 0 .4.1.8.4 1.1.2.1.5.3.9.3zM375.7 17h-2.8v-3.8h2.8v.5h-2.3v1.2h2.1v.5h-2.1v1.3h2.3v.3zM379.4 15.4v.5c0 .2-.1.3-.2.5s-.2.3-.5.4c-.2.1-.5.2-.8.2-.3 0-.6-.1-.8-.2-.2-.1-.4-.2-.5-.4-.1-.2-.2-.3-.2-.5V13.1h.5V15.9c0 .2.1.3.3.4.1.1.4.2.6.2.3 0 .5-.1.7-.2.1-.1.2-.2.3-.4 0-.2.1-.4.1-.7V13h.5v2.4zM383.6 17h-.6c-.4-.6-.6-1-.7-1.1-.1-.1-.2-.3-.3-.4-.1-.1-.2-.2-.3-.2h-1V17h-.5v-3.8h2.3c.2 0 .3.1.4.2.1.1.2.2.3.4.1.1.1.3.1.5 0 .3-.1.5-.3.7-.2.2-.4.3-.8.3.3.1.5.3.7.7l.7 1zm-2.9-2.1h1.1c.2 0 .4 0 .5-.1.1 0 .2-.1.3-.2.1-.1.1-.2.1-.4s-.1-.3-.2-.4c-.1-.1-.3-.2-.6-.2h-1.2v1.3zM385.7 13.2c.5 0 1 .2 1.3.5.3.4.5.8.5 1.4 0 .6-.2 1.1-.5 1.4-.3.4-.8.5-1.3.5s-1-.2-1.3-.6c-.3-.4-.5-.8-.5-1.4 0-.6.2-1.1.5-1.5.3-.1.8-.3 1.3-.3zm0 3.5c.4 0 .7-.1.9-.4.2-.3.4-.6.4-1.1 0-.5-.1-.9-.4-1.1-.2-.3-.6-.4-.9-.4-.4 0-.7.1-.9.4-.2.3-.4.7-.4 1.2 0 .4.1.8.4 1.1.2.1.5.3.9.3zM388.2 13.2h2c.2 0 .3.1.5.2.1.1.2.2.3.4.1.2.1.3.1.5 0 .4-.1.6-.3.8-.2.2-.6.3-1.1.3h-1V17h-.5v-3.8zm.5 1.9h1c.6 0 .9-.2.9-.7 0-.2 0-.3-.1-.4-.1-.1-.2-.2-.3-.2h-1.5v1.3zM394.6 17h-2.8v-3.8h2.8v.5h-2.3v1.2h2.1v.5h-2.1v1.3h2.3v.3zM395.9 17h-.5v-3.8h.5V17zM399.9 17h-.6l-.4-1.2h-1.6l-.4 1.2h-.5l1.5-3.8h.5l1.5 3.8zm-1.2-1.5c-.3-.8-.5-1.3-.5-1.4 0-.1-.1-.3-.1-.4 0 .3-.1.5-.2.7l-.4 1.1h1.2zM357.1 32.8H355V34h1.8v.5H355v1.7h-.5v-3.8h2.6v.4zM359.9 36.2h-.4v-.4c-.2.3-.5.5-.9.5-.2 0-.4 0-.5-.1-.2-.1-.3-.2-.3-.4-.1-.2-.1-.4-.1-.6v-1.7h.5v2c0 .1.1.2.2.3.1.1.2.1.4.1s.3-.1.5-.2.2-.4.2-.8v-1.5h.5v2.8zM362.9 36.2h-.5v-1.7c0-.3-.1-.5-.2-.6-.1-.1-.2-.2-.4-.2-.1 0-.3 0-.4.1l-.3.3c-.1.1-.1.3-.1.5v1.5h-.5v-2.8h.4v.4c.1-.2.2-.3.4-.3.1-.1.3-.1.5-.1.1 0 .3 0 .4.1.1.1.3.1.3.2.1.1.1.2.2.3v2.3zM365.8 36.2h-.4v-.4c-.2.3-.4.4-.8.4-.3 0-.6-.1-.8-.4-.2-.3-.3-.6-.3-1s.1-.8.3-1.1c.2-.3.5-.4.8-.4.3 0 .6.1.8.4v-1.4h.5v3.9zm-1.1-.3c.2 0 .4-.1.5-.3.1-.2.2-.4.2-.8 0-.3-.1-.6-.2-.8-.1-.2-.3-.3-.6-.3-.2 0-.4.1-.6.3-.1.2-.2.5-.2.8 0 .2 0 .4.1.6.1.2.2.3.3.4.2 0 .3.1.5.1zM367.7 33.4c.4 0 .7.1.9.4.2.2.4.6.4 1 0 .5-.1.9-.4 1.1-.3.2-.6.3-.9.3-.3 0-.7-.1-.9-.3-.3-.2-.4-.6-.4-1.1 0-.5.1-.8.4-1.1.2-.2.5-.3.9-.3zm0 2.5c.3 0 .5-.1.6-.3.1-.2.2-.5.2-.8 0-.3-.1-.6-.2-.8-.2-.2-.4-.3-.6-.3-.2 0-.4.1-.6.3-.2.2-.2.4-.2.8 0 .3.1.6.2.8.2.2.4.3.6.3zM373.9 36.2h-2.8v-3.8h2.8v.5h-2.3V34h2.1v.5h-2.1v1.3h2.3v.4zM376.8 36.2h-.4v-.4c-.2.3-.5.5-.9.5-.2 0-.4 0-.5-.1-.2-.1-.3-.2-.3-.4-.1-.2-.1-.4-.1-.6v-1.7h.5v2c0 .1.1.2.2.3.1.1.2.1.4.1s.3-.1.5-.2.2-.4.2-.8v-1.5h.5v2.8zM379 33.5l-.2.4c-.1-.1-.2-.1-.3-.1-.2 0-.3.1-.4.2-.1.2-.1.4-.1.7v1.4h-.5v-2.8h.4v.4c.1-.3.3-.5.6-.5.2.2.3.2.5.3zM380.4 33.4c.4 0 .7.1.9.4.2.2.4.6.4 1 0 .5-.1.9-.4 1.1-.3.2-.6.3-.9.3-.3 0-.7-.1-.9-.3-.3-.2-.4-.6-.4-1.1 0-.5.1-.8.4-1.1.2-.2.5-.3.9-.3zm0 2.5c.3 0 .5-.1.6-.3.1-.2.2-.5.2-.8 0-.3-.1-.6-.2-.8s-.3-.3-.6-.3c-.2 0-.4.1-.6.3-.2.2-.2.4-.2.8 0 .3.1.6.2.8.2.2.4.3.6.3zM382.7 33.8c.2-.3.4-.4.8-.4s.6.1.9.4c.2.3.3.6.3 1s-.1.8-.3 1.1c-.2.3-.5.4-.9.4-.3 0-.5-.1-.7-.4v1.3h-.5v-3.8h.4v.4zm.7 2.1c.2 0 .4-.1.5-.3.1-.2.2-.5.2-.8 0-.3-.1-.6-.2-.8-.1-.2-.3-.3-.5-.3s-.4.1-.5.3c-.1.2-.2.5-.2.8 0 .3.1.6.2.8.1.2.3.3.5.3zM387.6 34.9h-2.1c0 .3.1.5.3.7.2.2.3.2.6.2.2 0 .3 0 .4-.1.1-.1.2-.2.3-.4l.5.1c-.1.3-.2.5-.4.7-.2.2-.5.2-.8.2-.4 0-.7-.1-1-.4-.2-.3-.3-.6-.3-1s.1-.8.3-1.1c.2-.3.5-.4 1-.4.2 0 .4 0 .6.1.2.1.3.2.5.5 0 .2.1.5.1.9zm-.5-.3c0-.3-.1-.5-.3-.6-.2-.1-.3-.2-.5-.2s-.4.1-.5.2c-.1.1-.2.3-.2.6h1.5zM390.4 36.2h-.4v-.4c-.2.3-.5.5-.9.5-.2 0-.4 0-.5-.1-.2-.1-.3-.2-.3-.4-.1-.2-.1-.4-.1-.6v-1.7h.5v2c0 .1.1.2.2.3.1.1.2.1.4.1s.3-.1.5-.2.2-.4.2-.8v-1.5h.5v2.8zM394.8 36.2h-.4v-.4c-.2.3-.4.4-.8.4-.3 0-.6-.1-.8-.4-.2-.3-.3-.6-.3-1s.1-.8.3-1.1c.2-.3.5-.4.8-.4.3 0 .6.1.8.4v-1.4h.5v3.9zm-1.1-.3c.2 0 .4-.1.5-.3.1-.2.2-.4.2-.8 0-.3-.1-.6-.2-.8-.1-.2-.3-.3-.6-.3-.2 0-.4.1-.5.3-.1.2-.2.5-.2.8 0 .2 0 .4.1.6.1.2.2.3.3.4.1 0 .2.1.4.1zM398 34.9h-2.1c0 .3.1.5.3.7s.3.2.6.2c.2 0 .3 0 .4-.1.1-.1.2-.2.3-.4l.5.1c-.1.3-.2.5-.4.7-.2.2-.5.2-.8.2-.4 0-.7-.1-1-.4-.2-.3-.3-.6-.3-1s.1-.8.3-1.1c.2-.3.5-.4 1-.4.2 0 .4 0 .6.1.2.1.3.2.5.5 0 .2.1.5.1.9zm-.5-.3c0-.3-.1-.5-.3-.6-.2-.1-.3-.2-.5-.2s-.4.1-.5.2c-.1.1-.2.3-.2.6h1.5zM354.5 38.8h1.9c.2 0 .3.1.5.2s.3.2.4.4c.1.2.2.3.3.5.1.2.1.5.1.8 0 .6-.1 1-.4 1.4-.3.4-.7.5-1.4.5h-1.4v-3.8zm.5 3.3H356.2c.1 0 .3-.1.4-.2.1-.1.2-.2.3-.5.1-.2.1-.5.1-.8 0-.2 0-.4-.1-.5 0-.2-.1-.3-.2-.5l-.3-.3c-.1-.1-.2-.1-.3-.1H355v2.9zM360.7 41.3h-2.1c0 .3.1.5.3.7.2.2.3.2.6.2.2 0 .3 0 .4-.1s.2-.2.3-.4l.5.1c-.1.3-.2.5-.4.7s-.5.2-.8.2c-.4 0-.7-.1-1-.4-.2-.3-.3-.6-.3-1s.1-.8.3-1.1c.2-.3.5-.4 1-.4.2 0 .4 0 .6.1.2.1.3.2.5.5 0 .2.1.5.1.9zm-.5-.4c0-.3-.1-.5-.3-.6-.2-.1-.3-.2-.5-.2s-.4.1-.5.2c-.1.1-.2.3-.2.6h1.5zM362.8 40.6c0-.2-.1-.3-.2-.3-.1-.1-.2-.1-.4-.1s-.3 0-.4.1c-.1.1-.2.1-.2.3 0 .1 0 .2.1.2s.3.1.5.2c.3.1.5.1.7.2.1.1.3.1.3.2.1.1.1.2.1.4s-.1.5-.3.6c-.2.2-.5.3-.8.3-.3 0-.6-.1-.8-.2-.2-.1-.3-.4-.4-.7l.5-.1c0 .2.1.3.2.4.1.1.3.1.5.1s.4 0 .5-.1c.1-.1.2-.2.2-.3 0-.1 0-.1-.1-.2s-.1-.1-.2-.1-.2-.1-.5-.1c-.4-.1-.7-.2-.8-.3-.1-.1-.2-.3-.2-.5s.1-.4.3-.6c.2-.1.4-.2.7-.2.3 0 .6.1.8.2.2.1.3.3.3.6h-.4zM366.3 41.3h-2.1c0 .3.1.5.3.7.2.2.3.2.6.2.2 0 .3 0 .4-.1s.2-.2.3-.4l.5.1c-.1.3-.2.5-.4.7s-.5.2-.8.2c-.4 0-.7-.1-1-.4-.2-.3-.3-.6-.3-1s.1-.8.3-1.1c.2-.3.5-.4 1-.4.2 0 .4 0 .6.1.2.1.3.2.5.5 0 .2.1.5.1.9zm-.5-.4c0-.3-.1-.5-.3-.6-.2-.1-.3-.2-.5-.2s-.4.1-.5.2c-.1.1-.2.3-.2.6h1.5zM369.1 42.6h-.5v-1.7c0-.3-.1-.5-.2-.6-.1-.1-.2-.2-.4-.2-.1 0-.3 0-.4.1l-.3.3c-.1.1-.1.3-.1.5v1.5h-.5v-2.8h.4v.4c.1-.2.2-.3.4-.3s.3-.1.5-.1c.1 0 .3 0 .4.1.1.1.3.1.3.2.1.1.1.2.2.3v2.3zM372.1 39.8l-1 2.8h-.4l-1-2.8h.5l.6 1.6c.1.3.2.5.2.6 0-.1.1-.3.1-.4l.6-1.8h.4zM373.6 39.8c.4 0 .7.1.9.4.2.2.4.6.4 1 0 .5-.1.9-.4 1.1-.3.2-.6.3-.9.3-.3 0-.7-.1-.9-.3-.3-.2-.4-.6-.4-1.1 0-.5.1-.8.4-1.1.2-.2.5-.3.9-.3zm0 2.5c.3 0 .5-.1.6-.3.1-.2.2-.5.2-.8 0-.3-.1-.6-.2-.8-.2-.2-.3-.3-.6-.3-.2 0-.4.1-.6.3-.2.2-.2.4-.2.8 0 .3.1.6.2.8.2.2.4.3.6.3zM375.9 42.6h-.5v-3.8h.5v3.8zM378.9 39.8l-1 2.8h-.4l-1-2.8h.5l.6 1.6c.1.3.2.5.2.6 0-.1.1-.3.1-.4l.6-1.8h.4zM379.8 39.3h-.5v-.5h.5v.5zm0 3.3h-.5v-2.8h.5v2.8zM384.2 42.6h-.5v-1.7-.3c0-.1-.1-.2-.1-.2-.1-.1-.2-.1-.3-.1-.2 0-.3.1-.5.2-.1.1-.2.3-.2.6v1.6h-.5v-1.8c0-.2 0-.4-.1-.5-.1-.1-.2-.1-.4-.1s-.4.1-.5.2c-.1.1-.2.4-.2.8v1.4h-.5v-2.8h.4v.4c.2-.3.5-.4.8-.4.2 0 .4 0 .5.1.1.1.2.2.3.4.2-.3.5-.5.8-.5.3 0 .5.1.6.2s.2.4.2.7v1.8zM387.3 41.3h-2.1c0 .3.1.5.3.7.2.2.3.2.6.2.2 0 .3 0 .4-.1s.2-.2.3-.4l.5.1c-.1.3-.2.5-.4.7-.2.2-.5.2-.8.2-.4 0-.7-.1-1-.4-.2-.3-.3-.6-.3-1s.1-.8.3-1.1c.2-.3.5-.4 1-.4.2 0 .4 0 .6.1.2.1.3.2.5.5 0 .2.1.5.1.9zm-.5-.4c0-.3-.1-.5-.3-.6-.2-.1-.3-.2-.5-.2s-.4.1-.5.2c-.1.1-.2.3-.2.6h1.5zM390.1 42.6h-.5v-1.7c0-.3-.1-.5-.2-.6-.1-.1-.2-.2-.4-.2-.1 0-.3 0-.4.1l-.3.3c-.1.1-.1.3-.1.5v1.5h-.5v-2.8h.4v.4c.1-.2.2-.3.4-.3.1-.1.3-.1.5-.1.1 0 .3 0 .4.1.1.1.3.1.3.2.1.1.1.2.2.3v2.3zM391.9 42.6h-.4c-.2 0-.4 0-.4-.1-.1-.1-.2-.2-.2-.3v-2.1h-.3v-.4h.3V39l.5-.3v1h.5v.4h-.5V42c0 .1.1.1.2.1h.2l.1.5zM393.4 39.8c.4 0 .7.1.9.4.2.2.4.6.4 1 0 .5-.1.9-.4 1.1-.3.2-.6.3-.9.3-.3 0-.7-.1-.9-.3-.3-.2-.4-.6-.4-1.1 0-.5.1-.8.4-1.1.2-.2.6-.3.9-.3zm0 2.5c.3 0 .5-.1.6-.3.1-.2.2-.5.2-.8 0-.3-.1-.6-.2-.8-.2-.2-.4-.3-.6-.3-.2 0-.4.1-.6.3-.2.2-.2.4-.2.8 0 .3.1.6.2.8.2.2.4.3.6.3zM400.2 42.6h-.6c-.4-.6-.6-1-.7-1.1-.1-.1-.2-.3-.3-.4-.1-.1-.2-.2-.3-.2h-1v1.7h-.5v-3.8h2.3c.2 0 .3.1.4.2.1.1.2.2.3.4.1.1.1.3.1.5 0 .3-.1.5-.3.7-.2.2-.4.3-.8.3.3.1.5.3.7.7l.7 1zm-2.9-2.1h1.1c.2 0 .4 0 .5-.1.1 0 .2-.1.3-.2.1-.1.1-.2.1-.4s-.1-.3-.2-.4c-.1-.1-.3-.2-.6-.2h-1.2v1.3zM403 41.3h-2.1c0 .3.1.5.3.7.2.2.3.2.6.2.2 0 .3 0 .4-.1.1-.1.2-.2.3-.4l.5.1c-.1.3-.2.5-.4.7s-.5.2-.8.2c-.4 0-.7-.1-1-.4-.2-.3-.4-.6-.4-1s.1-.8.3-1.1c.2-.3.5-.4 1-.4.2 0 .4 0 .6.1.2.1.3.2.5.5.1.2.2.5.2.9zm-.5-.4c0-.3-.1-.5-.3-.6-.2-.1-.3-.2-.5-.2s-.4.1-.5.2c-.1.1-.2.3-.2.6h1.5zM405.8 42.2c0 .4 0 .7-.1.9s-.2.3-.4.5c-.2.1-.4.2-.7.2-.3 0-.6-.1-.8-.2-.2-.1-.3-.4-.3-.7l.5.1c0 .1.1.3.2.3.1.1.3.1.4.1.2 0 .4 0 .5-.1.1-.1.2-.2.2-.4v-.6c-.2.2-.5.4-.8.4-.4 0-.6-.1-.9-.4-.2-.3-.3-.6-.3-1s.1-.7.3-1c.2-.3.5-.4.9-.4.3 0 .6.1.8.4V40h.4v2.2zm-1.2 0c.2 0 .4-.1.5-.2.2-.2.2-.4.2-.8 0-.3-.1-.6-.2-.8-.1-.2-.3-.3-.5-.3s-.4.1-.5.3c-.1.2-.2.4-.2.7 0 .4.1.6.2.8.1.2.3.3.5.3zM407 39.3h-.5v-.5h.5v.5zm0 3.3h-.5v-2.8h.5v2.8zM408.8 39.8c.4 0 .7.1.9.4.2.2.4.6.4 1 0 .5-.1.9-.4 1.1-.3.2-.6.3-.9.3-.3 0-.7-.1-.9-.3-.3-.2-.4-.6-.4-1.1 0-.5.1-.8.4-1.1.2-.2.5-.3.9-.3zm0 2.5c.3 0 .5-.1.6-.3.1-.2.2-.5.2-.8 0-.3-.1-.6-.2-.8-.2-.2-.4-.3-.6-.3-.2 0-.4.1-.6.3s-.2.4-.2.8c0 .3.1.6.2.8.2.2.4.3.6.3zM412.9 42.6h-.5v-1.7c0-.3-.1-.5-.2-.6-.1-.1-.2-.2-.4-.2-.1 0-.3 0-.4.1l-.3.3c-.1.1-.1.3-.1.5v1.5h-.5v-2.8h.4v.4c.1-.2.2-.3.4-.3.1-.1.3-.1.5-.1.1 0 .3 0 .4.1.1.1.3.1.3.2.1.1.1.2.2.3v2.3zM416 42.6h-.5c0-.1-.1-.2-.1-.3-.3.3-.7.4-1 .4-.3 0-.5-.1-.7-.2-.2-.1-.3-.3-.3-.6 0-.2.1-.4.2-.6.2-.1.4-.2.8-.3l.4-.1c.2 0 .3-.1.4-.1v-.3c0-.1 0-.1-.1-.2 0-.1-.1-.1-.2-.2-.1 0-.2-.1-.4-.1s-.4 0-.5.1c-.1.1-.2.2-.2.4l-.5-.1c.1-.3.2-.5.4-.6.2-.1.5-.2.9-.2.3 0 .6 0 .7.1.2.1.3.2.3.4 0 .1.1.3.1.5V42c.2.3.2.5.3.6zm-.6-1.2v-.2c-.2.1-.5.1-.9.2-.4 0-.5.2-.5.4 0 .1 0 .2.1.3.1.1.2.1.4.1s.4-.1.6-.2c.2-.1.3-.3.3-.6zM417 42.6h-.5v-3.8h.5v3.8z"/></g></g><g><path class="st7" d="M207.8 39.2l6.7-5.7c.7-.6 1.2-1.1 1.7-1.5.5-.5.8-.9 1.1-1.3.3-.4.5-.8.6-1.2.1-.4.2-.8.2-1.3 0-1-.3-1.7-.9-2.2-.6-.5-1.4-.8-2.3-.8-.9 0-1.7.2-2.4.7-.7.5-1.4 1.2-2.2 2.2l-2.4-1.9c.5-.7.9-1.2 1.4-1.8.5-.5 1-1 1.6-1.3.6-.3 1.2-.6 1.9-.8.7-.2 1.5-.3 2.3-.3 1 0 1.8.1 2.6.4.8.3 1.5.7 2 1.2.6.5 1 1.1 1.3 1.8.3.7.5 1.5.5 2.4v.2c0 .8-.1 1.5-.3 2.1-.2.6-.5 1.2-.9 1.8-.4.6-1 1.2-1.6 1.7-.6.6-1.4 1.2-2.3 1.9l-4 3.4h9.3v3h-14.2v-2.7zM233.8 41.9c-1.5 0-2.9-.3-4.1-.8-1.3-.5-2.3-1.3-3.2-2.2-.9-.9-1.6-2-2.1-3.2-.5-1.2-.8-2.5-.8-3.9v-.1c0-1.4.3-2.7.8-3.9.5-1.2 1.2-2.3 2.1-3.2.9-.9 2-1.7 3.2-2.2 1.2-.5 2.6-.8 4.1-.8 1.5 0 2.9.3 4.1.8 1.3.5 2.3 1.3 3.2 2.2.9.9 1.6 2 2.1 3.2.5 1.2.8 2.5.8 3.9v.1c0 1.4-.3 2.7-.8 3.9-.5 1.2-1.2 2.3-2.1 3.2-.9.9-2 1.7-3.2 2.2-1.3.6-2.6.8-4.1.8m0-3.1c1 0 1.9-.2 2.7-.5.8-.4 1.5-.9 2.1-1.5.6-.6 1-1.4 1.4-2.2.3-.8.5-1.7.5-2.7v-.1c0-1-.2-1.9-.5-2.7-.3-.8-.8-1.6-1.4-2.2-.6-.6-1.3-1.1-2.1-1.5-.8-.4-1.7-.6-2.7-.6s-1.9.2-2.7.5c-.8.4-1.5.9-2.1 1.5-.6.6-1 1.4-1.4 2.2-.3.8-.5 1.7-.5 2.7v.1c0 1 .2 1.9.5 2.7.3.9.8 1.6 1.4 2.2.6.6 1.3 1.1 2.1 1.5.8.4 1.7.6 2.7.6M245.4 39.2l6.7-5.7c.7-.6 1.2-1.1 1.7-1.5.5-.5.8-.9 1.1-1.3.3-.4.5-.8.6-1.2.1-.4.2-.8.2-1.3 0-1-.3-1.7-.9-2.2-.6-.5-1.4-.8-2.3-.8-.9 0-1.7.2-2.4.7-.7.5-1.4 1.2-2.2 2.2l-2.4-1.9c.5-.7.9-1.2 1.4-1.8.5-.5 1-1 1.6-1.3.6-.3 1.2-.6 1.9-.8.7-.2 1.5-.3 2.3-.3 1 0 1.8.1 2.6.4.8.3 1.5.7 2 1.2.6.5 1 1.1 1.3 1.8.3.7.5 1.5.5 2.4v.2c0 .8-.1 1.5-.3 2.1-.2.6-.5 1.2-.9 1.8-.4.6-1 1.2-1.6 1.7-.6.6-1.4 1.2-2.3 1.9l-4 3.4h9.3v3h-14.2v-2.7zM271.3 41.9c-1.5 0-2.9-.3-4.1-.8-1.3-.5-2.3-1.3-3.2-2.2-.9-.9-1.6-2-2.1-3.2-.5-1.2-.8-2.5-.8-3.9v-.1c0-1.4.3-2.7.8-3.9.5-1.2 1.2-2.3 2.1-3.2.9-.9 2-1.7 3.2-2.2 1.3-.5 2.6-.8 4.1-.8 1.5 0 2.9.3 4.1.8 1.2.5 2.3 1.3 3.2 2.2.9.9 1.6 2 2.1 3.2.5 1.2.8 2.5.8 3.9v.1c0 1.4-.3 2.7-.8 3.9-.5 1.2-1.2 2.3-2.1 3.2-.9.9-2 1.7-3.2 2.2-1.2.6-2.5.8-4.1.8m.1-3.1c1 0 1.9-.2 2.7-.5.8-.4 1.5-.9 2.1-1.5.6-.6 1-1.4 1.4-2.2.3-.8.5-1.7.5-2.7v-.1c0-1-.2-1.9-.5-2.7-.3-.8-.8-1.6-1.4-2.2-.6-.6-1.3-1.1-2.1-1.5-.8-.4-1.7-.6-2.7-.6-1 0-1.9.2-2.7.5-.8.4-1.5.9-2.1 1.5-.6.6-1 1.4-1.4 2.2-.3.8-.5 1.7-.5 2.7v.1c0 1 .2 1.9.5 2.7.3.9.8 1.6 1.4 2.2.6.6 1.3 1.1 2.1 1.5.8.4 1.7.6 2.7.6"/><g><path class="st8" d="M209.9 15.7h-.4v1.2c.2 0 .5.1.7.1v.7h-2.5V17c.2 0 .5-.1.7-.1v-4c-.2 0-.5-.1-.7-.1v-.7h2.1c1.3 0 2.1.6 2.1 1.7.1 1-.7 1.9-2 1.9zm0-2.8h-.4v1.8h.3c.6 0 1.1-.4 1.1-1 0-.4-.3-.8-1-.8zm5.1 4.8c-1.7 0-2.5-1.1-2.5-2.8 0-1.8 1.2-2.9 2.7-2.9 1.5 0 2.5.9 2.5 2.8 0 1.8-1.2 2.9-2.7 2.9zm.1-4.8c-.8 0-1.5.6-1.5 1.8 0 1.2.5 1.9 1.4 1.9.7 0 1.5-.6 1.5-1.9.1-1.1-.4-1.8-1.4-1.8zm6.2 4.7l-1.3-2.3h-.1v1.5c.2 0 .3 0 .5.1v.7h-2.3v-.7c.2 0 .5-.1.7-.1v-4c-.2 0-.5-.1-.7-.1V12h2.3c1.2 0 2 .4 2 1.5 0 .8-.5 1.3-1.3 1.5.1.1.2.3.3.4l.8 1.3c.2 0 .3.1.5.1v.7h-1.4zm-1-4.7h-.4v1.6h.4c.6 0 1-.3 1-.8-.1-.5-.4-.8-1-.8zm6.2.7c0-.3-.1-.5-.1-.7h-.8v3.9c.2 0 .5.1.7.1v.7h-2.5v-.7c.2 0 .5-.1.7-.1v-3.9h-.8c0 .2-.1.4-.1.7h-.8v-1.5h4.5v1.5h-.8zm6.1-.8v2.6c0 1.5-.8 2.2-2.3 2.2-1.7 0-2.1-.9-2.1-2v-2.8c-.2 0-.4 0-.5-.1V12h2.2v.7c-.2 0-.4.1-.6.1v2.8c0 .7.2 1.2 1.1 1.2.8 0 1.2-.3 1.2-1.3v-2.7c-.2 0-.4 0-.6-.1V12h2.1v.7c-.1.1-.3.1-.5.1zm5.5 2.7v1.9c-.5.2-1.2.3-1.9.3-1.7 0-2.8-1-2.8-2.7 0-1.8 1.2-3 3-3 .5 0 1 .1 1.5.2v1.5h-.8c0-.2-.1-.4-.1-.7-.2-.1-.5-.1-.7-.1-1.1 0-1.8.7-1.8 1.9s.6 1.8 1.8 1.8c.3 0 .5 0 .7-.1v-1.1c-.2 0-.5-.1-.7-.1v-.7h2.2v.7c-.1.1-.3.1-.4.2zm3.8 2.1v-.7c.2 0 .4-.1.6-.1l-.2-.7h-2l-.2.7c.2 0 .4.1.6.1v.7h-2.1v-.7c.1 0 .3-.1.4-.1l1.7-4.8h1.3l1.7 4.8c.1 0 .3 0 .4.1v.7h-2.2zm-.4-3.6l-.3-.9c-.1.3-.1.6-.3.9l-.5 1.3h1.5l-.4-1.3zm2.8 3.6v-.7c.2 0 .5-.1.7-.1v-4c-.2 0-.5-.1-.7-.1V12h2.5v.7c-.2 0-.5.1-.7.1v3.9h1.1c0-.2.1-.4.1-.7h.8v1.5h-3.8z"/></g><g><path class="st8" d="M191.3 12.2c-4.8 1.9-7.9 7-7.9 14.8v11.8s1-7.6 7.9-9.8V12.2z"/><path class="st7" d="M193.6 30.2c-2.8.6-6.9 2.8-8.2 6 6-7.3 18.4-.2 18.9-14.1.2-4.4.2-9.8.2-9.8-6.4.4-11 2.1-11 2.1v15.8z"/><path class="st8" d="M192.9 34.2s-6.6.5-7.1 4.3c-.4 2.9 7.1 3 7.1 3v-7.3z"/></g></g></svg>