<?xml version="1.0" encoding="UTF-8" standalone="no"?>
<svg width="130px" height="90px" viewBox="0 0 130 90" version="1.1" xmlns="http://www.w3.org/2000/svg" xmlns:xlink="http://www.w3.org/1999/xlink">
    <!-- Generator: Sketch 40.3 (33839) - http://www.bohemiancoding.com/sketch -->
    <title>Reservas</title>
    <desc>Created with Sketch.</desc>
    <defs></defs>
    <g id="Symbols" stroke="none" stroke-width="1" fill="none" fill-rule="evenodd">
        <g id="megaFooter" transform="translate(-691.000000, -1219.000000)" fill="#F4D680">
            <g id="Group-2">
                <g id="Footer" transform="translate(0.000000, 1064.000000)">
                    <g id="tabua" transform="translate(691.000000, 155.000000)">
                        <g id="Layer_1">
                            <g id="Group-8">
                                <g id="Group-9">
                                    <path d="M129.477362,43.395625 C128.465435,35.774375 118.517029,34.7942292 108.678739,38.06075 C104.959478,39.2968333 90.7564203,49.5172708 86.8017391,33.8046042 C81.9395507,14.81025 64.9703043,0.663541667 44.5893623,0.0303333333 L44.5893623,0 L44.1564928,0 L44.1564928,0.02275 C19.6917681,0.4948125 0,20.4313958 0,44.97675 C0,69.5221042 19.6917681,89.4567917 44.1564928,89.9288542 L44.1564928,89.9516042 L44.5893623,89.9516042 L44.5893623,89.9212708 C64.9703043,89.2880625 81.9395507,75.1394583 86.8017391,56.1488958 C90.7564203,40.4362292 104.959478,50.6566667 108.678739,51.8908542 C118.51513,55.157375 128.463536,54.1772292 129.477362,46.5540833 C129.587478,45.465875 129.701391,44.8118125 129.477362,43.395625" id="Reservas"></path>
                                </g>
                            </g>
                        </g>
                    </g>
                </g>
            </g>
        </g>
    </g>
</svg>