<?xml version="1.0" encoding="UTF-8" standalone="no"?>
<svg width="15px" height="11px" viewBox="0 0 15 11" version="1.1" xmlns="http://www.w3.org/2000/svg" xmlns:xlink="http://www.w3.org/1999/xlink">
    <!-- Generator: Sketch 40.3 (33839) - http://www.bohemiancoding.com/sketch -->
    <title>seta-active</title>
    <desc>Created with Sketch.</desc>
    <defs></defs>
    <g id="Welcome" stroke="none" stroke-width="1" fill="none" fill-rule="evenodd">
        <g id="EMENTA-Copy-4" transform="translate(-198.000000, -1056.000000)" fill="#4A4A4A">
            <g id="seta-active" transform="translate(198.000000, 1056.000000)">
                <g id="Capa_1">
                    <path d="M9.93984375,0.481608696 C9.73875,0.26926087 9.4040625,0.26926087 9.1959375,0.481608696 C8.99484375,0.686782609 8.99484375,1.02826087 9.1959375,1.23295652 L12.9679687,5.08152174 L0.52078125,5.08152174 C0.230625,5.082 0,5.31730435 0,5.61334783 C0,5.9093913 0.230625,6.15234783 0.52078125,6.15234783 L12.9679687,6.15234783 L9.1959375,9.99373913 C8.99484375,10.206087 8.99484375,10.5480435 9.1959375,10.7527391 C9.4040625,10.965087 9.73921875,10.965087 9.93984375,10.7527391 L14.6048437,5.99308696 C14.8129687,5.78791304 14.8129687,5.44643478 14.6048437,5.24173913 L9.93984375,0.481608696 L9.93984375,0.481608696 Z" id="Shape"></path>
                </g>
            </g>
        </g>
    </g>
</svg>