<?xml version="1.0" encoding="UTF-8" standalone="no"?>
<svg width="22px" height="21px" viewBox="0 0 22 21" version="1.1" xmlns="http://www.w3.org/2000/svg" xmlns:xlink="http://www.w3.org/1999/xlink">
    <!-- Generator: Sketch 40.3 (33839) - http://www.bohemiancoding.com/sketch -->
    <title>vegan</title>
    <desc>Created with Sketch.</desc>
    <defs>
        <polygon id="path-1" points="21.2930298 10.4569282 21.2930298 0.384872727 0.0924207221 0.384872727 0.0924207221 20.5289836 21.2930298 20.5289836 21.2930298 10.4569282"></polygon>
    </defs>
    <g id="Welcome" stroke="none" stroke-width="1" fill="none" fill-rule="evenodd">
        <g id="EMENTA-Copy-4" transform="translate(-205.000000, -1751.000000)">
            <g id="specials" transform="translate(205.000000, 1725.000000)">
                <g id="vegan" transform="translate(0.448980, 26.300000)">
                    <mask id="mask-2" fill="white">
                        <use xlink:href="#path-1"></use>
                    </mask>
                    <g id="Clip-2"></g>
                    <path d="M12.0070612,15.4526155 C12.8562889,15.3966518 13.6939466,15.2893882 14.5130926,15.0678655 C15.2628195,14.8649973 15.7556954,14.4312791 15.9824647,13.7177427 C16.2786531,12.7873473 16.3735259,11.8336336 16.4036075,10.8705927 C16.4105495,10.6560655 16.280967,10.5394745 16.0541978,10.5488018 C15.0661319,10.5767836 14.0896358,10.6607291 13.1339655,10.9265564 C12.4282041,11.1247609 11.9260722,11.5165064 11.6923611,12.2043927 C11.370719,13.16277 11.2781601,14.1514609 11.2457645,15.1471473 C11.2411366,15.3383564 11.368405,15.4432882 11.5743485,15.4502836 C11.7201287,15.4549473 11.863595,15.4526155 12.0070612,15.4526155 M9.36219152,15.4339609 C9.50797174,15.4409564 9.65143799,15.4526155 9.79953218,15.4502836 C10.0448132,15.4479518 10.1628257,15.3220336 10.144314,15.0911836 C10.1327441,14.9675973 10.1234882,14.8440109 10.1188603,14.7180927 C10.0864647,13.9182791 9.97076609,13.1347882 9.74399686,12.3582927 C9.52648352,11.6004518 9.02897959,11.13642 8.23528728,10.9218927 C7.28887284,10.6653927 6.31931868,10.5791155 5.34050863,10.5488018 C5.08597174,10.5394745 4.96564521,10.6630609 4.97952904,10.9195609 C5.01655259,11.7986564 5.11142543,12.6660927 5.34050863,13.5195382 C5.56959184,14.3753155 6.10180534,14.8906473 6.99962637,15.1051745 C7.77943485,15.29172 8.56387127,15.39432 9.36219152,15.4339609 M8.3486719,8.27761091 C8.37875353,8.38720636 8.40420722,8.57142 8.47825432,8.73931091 C8.91790895,9.78862909 9.68383359,10.6210882 10.4890958,11.4255655 C10.6186782,11.5538155 10.7852841,11.5374927 10.9125526,11.4092427 C11.6321978,10.6980382 12.2847378,9.94019727 12.7706719,9.06343364 C13.1409074,8.39653364 13.0784301,7.76227909 12.6989388,7.12336091 C12.2245746,6.31422 11.613686,5.60534727 10.9495761,4.94077909 C10.7806562,4.76822455 10.6047943,4.76822455 10.4289325,4.94077909 C9.76482261,5.61001091 9.14930612,6.31188818 8.68651177,7.12569273 C8.49213815,7.46380636 8.3486719,7.81357909 8.3486719,8.27761091 M11.3961727,20.5289836 L9.98696389,20.5289836 C9.73705495,20.49867 9.48483203,20.47302 9.23492308,20.4380427 C7.12226688,20.1419018 5.25257771,19.3397564 3.66056515,17.98497 C1.75848038,16.3666882 0.601494505,14.3566609 0.210433281,11.9548882 C0.16878179,11.6774018 0.12944427,11.4022473 0.0924207221,11.1247609 L0.0924207221,9.78629727 C0.122502355,9.54845182 0.150270016,9.30827455 0.187293564,9.07276091 C0.490423862,7.09071545 1.32345369,5.33485636 2.71646468,3.83316545 C4.41723391,2.00035636 6.54377394,0.883415455 9.09145683,0.500997273 C9.38764521,0.454360909 9.68846154,0.424047273 9.98696389,0.384406364 L11.3961727,0.384406364 C11.6460816,0.41472 11.8983046,0.44037 12.1505275,0.475347273 C14.2631837,0.766824545 16.1305589,1.57363364 17.7248854,2.92608818 C19.6246562,4.54670182 20.7816421,6.55439727 21.1727033,8.95617 C21.2166688,9.23132455 21.2536923,9.50881091 21.2930298,9.78629727 L21.2930298,11.1247609 C21.2606342,11.3626064 21.2328666,11.6004518 21.198157,11.8406291 C20.8927127,13.8203427 20.0619969,15.5762018 18.6689859,17.0755609 C16.9659027,18.90837 14.8416766,20.0299745 12.2916797,20.4123927 C11.9931774,20.4543655 11.694675,20.4893427 11.3961727,20.5289836" id="Fill-1" fill="#38B449" mask="url(#mask-2)"></path>
                </g>
            </g>
        </g>
    </g>
</svg>