<?xml version="1.0" encoding="utf-8"?>
<!-- Generator: Adobe Illustrator 16.0.0, SVG Export Plug-In . SVG Version: 6.00 Build 0)  -->
<!DOCTYPE svg PUBLIC "-//W3C//DTD SVG 1.1//EN" "http://www.w3.org/Graphics/SVG/1.1/DTD/svg11.dtd">
<svg version="1.1" id="Layer_1" xmlns="http://www.w3.org/2000/svg" xmlns:xlink="http://www.w3.org/1999/xlink" x="0px" y="0px"
	 width="90px" height="90px" viewBox="0 0 90 90" enable-background="new 0 0 90 90" xml:space="preserve">
<g>
	<path fill="#B5BE05" enable-background="new    " d="M88.895,44.511c-0.516-3.893-5.591-4.394-10.609-2.726
		c-1.896,0.632-9.144,5.853-11.159-2.173c-2.481-9.704-11.139-16.932-21.536-17.255v-0.016h-0.222v0.013
		c-12.479,0.24-22.525,10.426-22.525,22.965c0,12.541,10.046,22.724,22.525,22.966v0.012h0.222v-0.016
		c10.397-0.322,19.055-7.555,21.536-17.254c2.017-8.027,9.263-2.805,11.159-2.174c5.018,1.67,10.094,1.166,10.609-2.727
		C88.952,45.569,89.009,45.236,88.895,44.511"/>
</g>
</svg>
